<?xml version="1.0" encoding="utf-8"?>
<!-- Generator: Adobe Illustrator 16.0.0, SVG Export Plug-In . SVG Version: 6.00 Build 0)  -->
<!DOCTYPE svg PUBLIC "-//W3C//DTD SVG 1.1//EN" "http://www.w3.org/Graphics/SVG/1.1/DTD/svg11.dtd">
<svg version="1.1" id="Шар_1" xmlns="http://www.w3.org/2000/svg" xmlns:xlink="http://www.w3.org/1999/xlink" x="0px" y="0px"
	 width="220px" height="50px" viewBox="0 0 220 50" enable-background="new 0 0 220 50" xml:space="preserve">
<path fill="none" stroke="#FFFFFF" stroke-width="2.0001" stroke-linejoin="round" stroke-miterlimit="22.9256" d="M29.904,49
	c-1.928,0-3.857,0-5.786,0c-0.863-3.408-0.076-6.084,4.34-7.156c3.069-0.956,5.316-2.327,6.355-4.299
	c0.191,0.71,0.128,1.472-0.19,2.282c5.248-3.213,6.327-7.02,7.271-10.848c0.239-0.151,0.481-0.304,0.723-0.456
	c0.106,7.813-3.506,13.234-10.503,16.48C29.021,46.273,29.13,47.629,29.904,49L29.904,49z"/>
<path fill-rule="evenodd" clip-rule="evenodd" fill="#00A34B" d="M29.904,49c-1.928,0-3.857,0-5.786,0
	c-0.863-3.408-0.076-6.084,4.34-7.156c3.069-0.956,5.316-2.327,6.355-4.299c0.191,0.71,0.128,1.472-0.19,2.282
	c5.248-3.213,6.327-7.02,7.271-10.848c0.239-0.151,0.481-0.304,0.723-0.456c0.106,7.813-3.506,13.234-10.503,16.48
	C29.021,46.273,29.13,47.629,29.904,49L29.904,49z"/>
<path fill="none" stroke="#FFFFFF" stroke-width="2.0001" stroke-linejoin="round" stroke-miterlimit="22.9256" d="M14.977,49
	c1.928,0,3.856,0,5.786,0c0.863-3.408,0.076-6.084-4.34-7.156c-3.07-0.956-5.315-2.327-6.355-4.299
	c-0.19,0.71-0.127,1.472,0.189,2.282c-5.247-3.213-6.325-7.02-7.269-10.848c-0.241-0.151-0.483-0.304-0.724-0.456
	c-0.106,7.813,3.506,13.234,10.504,16.48C15.859,46.273,15.75,47.629,14.977,49L14.977,49z"/>
<path fill-rule="evenodd" clip-rule="evenodd" fill="#00A34B" d="M14.977,49c1.928,0,3.856,0,5.786,0
	c0.863-3.408,0.076-6.084-4.34-7.156c-3.07-0.956-5.315-2.327-6.355-4.299c-0.19,0.71-0.127,1.472,0.189,2.282
	c-5.247-3.213-6.325-7.02-7.269-10.848c-0.241-0.151-0.483-0.304-0.724-0.456c-0.106,7.813,3.506,13.234,10.504,16.48
	C15.859,46.273,15.75,47.629,14.977,49L14.977,49z"/>
<path fill="none" stroke="#FFFFFF" stroke-width="2.0001" stroke-linejoin="round" stroke-miterlimit="22.9256" d="M22.618,7.628
	c5.044,0.042,9.621,1.904,12.948,4.885c0.713,0.638,1.368,1.329,1.959,2.064c0.051,0.03,0.1,0.085,0.144,0.178
	c2.107,2.695,3.353,5.969,3.369,9.499c0,0.012,0,0.024,0,0.038c0,0.009,0,0.018,0,0.026c0,0.002,0,0.005,0,0.007
	c0,3.556-1.248,6.858-3.37,9.571c-0.044,0.09-0.091,0.145-0.141,0.176c-0.593,0.735-1.247,1.427-1.961,2.065
	c-3.329,2.982-7.907,4.843-12.954,4.885c-0.061,0.04-0.121,0.045-0.181,0.031c-0.062,0.014-0.122,0.009-0.184-0.032
	c-5.039-0.045-9.61-1.906-12.934-4.884c-0.712-0.638-1.366-1.327-1.957-2.06c-0.056-0.031-0.109-0.092-0.156-0.197
	c-2.115-2.71-3.359-6.006-3.359-9.555c0-3.55,1.244-6.844,3.359-9.553c0.047-0.108,0.102-0.169,0.158-0.2
	c0.59-0.732,1.245-1.42,1.956-2.058c3.323-2.978,7.891-4.838,12.928-4.885c0.062-0.037,0.125-0.04,0.189-0.024
	C22.494,7.589,22.557,7.592,22.618,7.628L22.618,7.628z M22.831,8.654v8.611c2.244-0.021,4.489-0.228,6.733-0.621
	c-0.268-0.722-0.578-1.419-0.929-2.086C27.303,12.03,25.366,9.936,22.831,8.654L22.831,8.654z M22.831,18.057v5.839h8.005
	c0-0.141-0.001-0.282-0.005-0.423c-0.047-2.087-0.383-4.152-1.005-6.072C27.495,17.817,25.162,18.035,22.831,18.057L22.831,18.057z
	 M22.831,24.688v5.904c2.269,0.022,4.539,0.229,6.807,0.623c0.724-2.076,1.12-4.301,1.188-6.527H22.831L22.831,24.688z
	 M22.831,31.383v8.564c2.819-1.666,4.891-4.246,6.219-7.243c0.107-0.242,0.21-0.487,0.309-0.735
	C27.182,31.6,25.006,31.403,22.831,31.383L22.831,31.383z M22.031,39.947v-8.564c-2.175,0.021-4.351,0.218-6.527,0.589
	c0.097,0.246,0.2,0.491,0.306,0.732C17.14,35.701,19.211,38.28,22.031,39.947L22.031,39.947z M22.031,30.592v-5.904h-7.996
	c0.068,2.229,0.465,4.452,1.189,6.529C17.494,30.823,19.762,30.615,22.031,30.592L22.031,30.592z M22.031,23.896v-5.839
	c-2.332-0.023-4.664-0.243-6.996-0.659c-0.623,1.922-0.959,3.988-1.006,6.075c-0.003,0.141-0.005,0.282-0.005,0.423H22.031
	L22.031,23.896z M22.031,17.266V8.654c-2.535,1.282-4.472,3.375-5.805,5.905c-0.351,0.666-0.66,1.363-0.928,2.083
	C17.542,17.036,19.787,17.244,22.031,17.266L22.031,17.266z M4.648,23.896h8.577c0-0.146,0.002-0.291,0.006-0.436
	c0.048-2.131,0.388-4.24,1.015-6.209c-2.185-0.432-4.37-1.035-6.554-1.812C5.852,17.868,4.742,20.773,4.648,23.896L4.648,23.896z
	 M31.636,23.896h8.597c-0.094-3.124-1.204-6.029-3.046-8.459c-2.19,0.779-4.38,1.383-6.57,1.815
	c0.627,1.969,0.966,4.079,1.014,6.208C31.634,23.605,31.635,23.751,31.636,23.896L31.636,23.896z M40.234,24.688h-8.608
	c-0.067,2.272-0.464,4.546-1.194,6.673c2.253,0.433,4.503,1.052,6.755,1.853C39.042,30.764,40.154,27.835,40.234,24.688
	L40.234,24.688z M13.236,24.688h-8.59c0.08,3.147,1.192,6.076,3.046,8.522c2.246-0.797,4.492-1.413,6.738-1.848
	C13.7,29.234,13.303,26.962,13.236,24.688L13.236,24.688z M36.664,33.863c-2.169-0.757-4.337-1.339-6.505-1.75
	c-0.118,0.306-0.243,0.607-0.376,0.906c-1.277,2.884-3.216,5.401-5.823,7.154c4.304-0.329,8.181-2.035,11.07-4.626
	C35.615,35.023,36.163,34.46,36.664,33.863L36.664,33.863z M14.703,32.115c-2.163,0.41-4.325,0.995-6.488,1.748
	c0.501,0.596,1.048,1.158,1.635,1.685c2.886,2.584,6.753,4.293,11.05,4.624c-2.606-1.753-4.545-4.269-5.823-7.152
	C14.946,32.722,14.822,32.42,14.703,32.115L14.703,32.115z M8.215,14.785c2.096,0.731,4.192,1.301,6.288,1.71
	c0.29-0.796,0.626-1.566,1.015-2.301c1.232-2.339,2.96-4.328,5.178-5.699c-4.214,0.37-8.005,2.062-10.845,4.605
	C9.263,13.626,8.717,14.19,8.215,14.785L8.215,14.785z M30.359,16.498c2.101-0.409,4.202-0.98,6.305-1.713
	c-0.501-0.595-1.049-1.158-1.635-1.683c-2.844-2.548-6.643-4.242-10.866-4.608c2.22,1.372,3.947,3.361,5.181,5.701
	C29.731,14.93,30.069,15.7,30.359,16.498L30.359,16.498z"/>
<path fill="#00A34B" d="M22.618,7.628c5.044,0.042,9.621,1.904,12.948,4.885c0.713,0.638,1.368,1.329,1.959,2.064
	c0.051,0.03,0.1,0.085,0.144,0.178c2.107,2.695,3.353,5.969,3.369,9.499c0,0.012,0,0.024,0,0.038c0,0.009,0,0.018,0,0.026
	c0,0.002,0,0.005,0,0.007c0,3.556-1.248,6.858-3.37,9.571c-0.044,0.09-0.091,0.145-0.141,0.176
	c-0.593,0.735-1.247,1.427-1.961,2.065c-3.329,2.982-7.907,4.843-12.954,4.885c-0.061,0.04-0.121,0.045-0.181,0.031
	c-0.062,0.014-0.122,0.009-0.184-0.032c-5.039-0.045-9.61-1.906-12.934-4.884c-0.712-0.638-1.366-1.327-1.957-2.06
	c-0.056-0.031-0.109-0.092-0.156-0.197c-2.115-2.71-3.359-6.006-3.359-9.555c0-3.55,1.244-6.844,3.359-9.553
	c0.047-0.108,0.102-0.169,0.158-0.2c0.59-0.732,1.245-1.42,1.956-2.058c3.323-2.978,7.891-4.838,12.928-4.885
	c0.062-0.037,0.125-0.04,0.189-0.024C22.494,7.589,22.557,7.592,22.618,7.628L22.618,7.628z M22.831,8.654v8.611
	c2.244-0.021,4.489-0.228,6.733-0.621c-0.268-0.722-0.578-1.419-0.929-2.086C27.303,12.03,25.366,9.936,22.831,8.654L22.831,8.654z
	 M22.831,18.057v5.839h8.005c0-0.141-0.001-0.282-0.005-0.423c-0.047-2.087-0.383-4.152-1.005-6.072
	C27.495,17.817,25.162,18.035,22.831,18.057L22.831,18.057z M22.831,24.688v5.904c2.269,0.022,4.539,0.229,6.807,0.623
	c0.724-2.076,1.12-4.301,1.188-6.527H22.831L22.831,24.688z M22.831,31.383v8.564c2.819-1.666,4.891-4.246,6.219-7.243
	c0.107-0.242,0.21-0.487,0.309-0.735C27.182,31.6,25.006,31.403,22.831,31.383L22.831,31.383z M22.031,39.947v-8.564
	c-2.175,0.021-4.351,0.218-6.527,0.589c0.097,0.246,0.2,0.491,0.306,0.732C17.14,35.701,19.211,38.28,22.031,39.947L22.031,39.947z
	 M22.031,30.592v-5.904h-7.996c0.068,2.229,0.465,4.452,1.189,6.529C17.494,30.823,19.762,30.615,22.031,30.592L22.031,30.592z
	 M22.031,23.896v-5.839c-2.332-0.023-4.664-0.243-6.996-0.659c-0.623,1.922-0.959,3.988-1.006,6.075
	c-0.003,0.141-0.005,0.282-0.005,0.423H22.031L22.031,23.896z M22.031,17.266V8.654c-2.535,1.282-4.472,3.375-5.805,5.905
	c-0.351,0.666-0.66,1.363-0.928,2.083C17.542,17.036,19.787,17.244,22.031,17.266L22.031,17.266z M4.648,23.896h8.577
	c0-0.146,0.002-0.291,0.006-0.436c0.048-2.131,0.388-4.24,1.015-6.209c-2.185-0.432-4.37-1.035-6.554-1.812
	C5.852,17.868,4.742,20.773,4.648,23.896L4.648,23.896z M31.636,23.896h8.597c-0.094-3.124-1.204-6.029-3.046-8.459
	c-2.19,0.779-4.38,1.383-6.57,1.815c0.627,1.969,0.966,4.079,1.014,6.208C31.634,23.605,31.635,23.751,31.636,23.896L31.636,23.896z
	 M40.234,24.688h-8.608c-0.067,2.272-0.464,4.546-1.194,6.673c2.253,0.433,4.503,1.052,6.755,1.853
	C39.042,30.764,40.154,27.835,40.234,24.688L40.234,24.688z M13.236,24.688h-8.59c0.08,3.147,1.192,6.076,3.046,8.522
	c2.246-0.797,4.492-1.413,6.738-1.848C13.7,29.234,13.303,26.962,13.236,24.688L13.236,24.688z M36.664,33.863
	c-2.169-0.757-4.337-1.339-6.505-1.75c-0.118,0.306-0.243,0.607-0.376,0.906c-1.277,2.884-3.216,5.401-5.823,7.154
	c4.304-0.329,8.181-2.035,11.07-4.626C35.615,35.023,36.163,34.46,36.664,33.863L36.664,33.863z M14.703,32.115
	c-2.163,0.41-4.325,0.995-6.488,1.748c0.501,0.596,1.048,1.158,1.635,1.685c2.886,2.584,6.753,4.293,11.05,4.624
	c-2.606-1.753-4.545-4.269-5.823-7.152C14.946,32.722,14.822,32.42,14.703,32.115L14.703,32.115z M8.215,14.785
	c2.096,0.731,4.192,1.301,6.288,1.71c0.29-0.796,0.626-1.566,1.015-2.301c1.232-2.339,2.96-4.328,5.178-5.699
	c-4.214,0.37-8.005,2.062-10.845,4.605C9.263,13.626,8.717,14.19,8.215,14.785L8.215,14.785z M30.359,16.498
	c2.101-0.409,4.202-0.98,6.305-1.713c-0.501-0.595-1.049-1.158-1.635-1.683c-2.844-2.548-6.643-4.242-10.866-4.608
	c2.22,1.372,3.947,3.361,5.181,5.701C29.731,14.93,30.069,15.7,30.359,16.498L30.359,16.498z"/>
<polygon fill="none" stroke="#FFFFFF" stroke-width="2.0001" stroke-linejoin="round" stroke-miterlimit="22.9256" points="
	16.143,21.5 16.143,36.672 18.885,34.492 18.885,30.7 21.661,26.302 25.181,30.378 27.278,28.845 23.235,23.806 37.367,1.405 
	31.153,6.732 18.967,25.858 18.805,19.563 16.143,21.5 "/>
<polygon fill-rule="evenodd" clip-rule="evenodd" fill="#E20613" points="16.143,21.5 16.143,36.672 18.885,34.492 18.885,30.7 
	21.661,26.302 25.181,30.378 27.278,28.845 23.235,23.806 37.367,1.405 31.153,6.732 18.967,25.858 18.805,19.563 16.143,21.5 "/>
<path fill="none" stroke="#FFFFFF" stroke-width="2.0001" stroke-linejoin="round" stroke-miterlimit="22.9256" d="M50.234,34.619
	V14.048h8.207v7.405l4.543-7.405h8.997l-6.979,9.757l7.185,10.814h-9.436l-4.311-7.821v7.821H50.234L50.234,34.619z M84.821,35.234
	c-1.787,0-3.419-0.268-4.896-0.803c-1.478-0.533-2.738-1.302-3.788-2.298c-1.05-0.993-1.847-2.153-2.393-3.487
	c-0.548-1.325-0.823-2.765-0.823-4.317c0-1.549,0.275-2.988,0.823-4.321c0.546-1.333,1.336-2.492,2.383-3.481
	c1.048-0.991,2.301-1.749,3.771-2.289c1.471-0.539,3.113-0.807,4.924-0.807c1.813,0,3.451,0.269,4.916,0.807
	c1.463,0.54,2.719,1.298,3.757,2.277c1.036,0.98,1.828,2.143,2.378,3.479c0.548,1.34,0.819,2.786,0.819,4.335
	c0,1.552-0.271,2.992-0.819,4.331c-0.55,1.336-1.347,2.502-2.389,3.485c-1.041,0.99-2.296,1.753-3.767,2.286
	C88.247,34.967,86.613,35.234,84.821,35.234L84.821,35.234z M84.821,28.646c1.167,0,2.13-0.391,2.885-1.176
	c0.755-0.791,1.13-1.84,1.13-3.141c0-1.308-0.375-2.353-1.123-3.135c-0.751-0.786-1.713-1.176-2.892-1.176
	c-0.782,0-1.479,0.181-2.094,0.539c-0.614,0.357-1.091,0.861-1.435,1.513c-0.345,0.652-0.517,1.406-0.517,2.259
	c0,0.852,0.172,1.605,0.517,2.262c0.344,0.655,0.82,1.16,1.435,1.518C83.342,28.469,84.039,28.646,84.821,28.646L84.821,28.646z
	 M99.477,34.619V14.048h8.208v7.082h4.101v-7.082h8.2v20.571h-8.2V27.09h-4.101v7.529H99.477L99.477,34.619z M123.688,34.619V14.048
	h8.209v7.405l4.541-7.405h8.998l-6.981,9.757l7.189,10.814h-9.439l-4.308-7.821v7.821H123.688L123.688,34.619z M158.275,35.234
	c-1.788,0-3.421-0.268-4.899-0.803c-1.476-0.533-2.734-1.302-3.786-2.298c-1.053-0.993-1.847-2.153-2.394-3.487
	c-0.547-1.325-0.819-2.765-0.819-4.317c0-1.549,0.272-2.988,0.819-4.321c0.547-1.333,1.338-2.492,2.383-3.481
	c1.045-0.991,2.301-1.749,3.772-2.289c1.471-0.539,3.111-0.807,4.924-0.807c1.814,0,3.447,0.269,4.913,0.807
	c1.468,0.54,2.718,1.298,3.76,2.277c1.035,0.98,1.824,2.143,2.377,3.479c0.549,1.34,0.82,2.786,0.82,4.335
	c0,1.552-0.271,2.992-0.82,4.331c-0.553,1.336-1.347,2.502-2.39,3.485c-1.039,0.99-2.298,1.753-3.767,2.286
	C161.702,34.967,160.07,35.234,158.275,35.234L158.275,35.234z M158.275,28.646c1.167,0,2.13-0.391,2.882-1.176
	c0.757-0.791,1.137-1.84,1.137-3.141c0-1.308-0.38-2.353-1.125-3.135c-0.753-0.786-1.717-1.176-2.894-1.176
	c-0.782,0-1.481,0.181-2.096,0.539c-0.613,0.357-1.09,0.861-1.432,1.513c-0.347,0.652-0.518,1.406-0.518,2.259
	c0,0.852,0.171,1.605,0.518,2.262c0.342,0.655,0.818,1.16,1.432,1.518C156.794,28.469,157.493,28.646,158.275,28.646L158.275,28.646
	z M172.932,34.619V14.048h10.697c1.9,0,3.469,0.333,4.696,0.999c1.226,0.662,2.108,1.534,2.661,2.602
	c0.547,1.073,0.819,2.233,0.819,3.481c0,1.264-0.272,2.43-0.823,3.502c-0.551,1.071-1.442,1.94-2.666,2.61
	c-1.229,0.667-2.793,1.002-4.688,1.002h-2.492v6.375H172.932L172.932,34.619z M181.137,19.396v3.498h0.909
	c1.309,0,1.959-0.587,1.959-1.764c0-1.154-0.65-1.734-1.959-1.734H181.137L181.137,19.396z M196.732,14.048h18.062V28.66h2.461
	v10.065h-6.977v-4.106h-10.67v4.106h-6.978V28.66c1.225-0.075,2.137-0.483,2.744-1.227c0.607-0.744,0.979-1.567,1.132-2.467
	c0.152-0.902,0.226-1.887,0.226-2.955V14.048L196.732,14.048z M204.122,20.008v2.915c0,1.586-0.16,2.821-0.488,3.692
	c-0.328,0.872-0.791,1.554-1.394,2.045h4.344v-8.652H204.122L204.122,20.008z"/>
<polygon fill="#00A34B" points="50.234,34.619 50.234,14.048 58.441,14.048 58.441,21.454 62.984,14.048 71.981,14.048 
	65.003,23.805 72.188,34.619 62.752,34.619 58.441,26.798 58.441,34.619 50.234,34.619 "/>
<path fill="#00A34B" d="M84.821,35.234c-1.787,0-3.419-0.268-4.896-0.803c-1.478-0.533-2.738-1.302-3.788-2.298
	c-1.05-0.993-1.847-2.153-2.393-3.487c-0.548-1.325-0.823-2.765-0.823-4.317c0-1.549,0.275-2.988,0.823-4.321
	c0.546-1.333,1.336-2.492,2.383-3.481c1.048-0.991,2.301-1.749,3.771-2.289c1.471-0.539,3.113-0.807,4.924-0.807
	c1.813,0,3.451,0.269,4.916,0.807c1.463,0.54,2.719,1.298,3.757,2.277c1.036,0.98,1.828,2.143,2.378,3.479
	c0.548,1.34,0.819,2.786,0.819,4.335c0,1.552-0.271,2.992-0.819,4.331c-0.55,1.336-1.347,2.502-2.389,3.485
	c-1.041,0.99-2.296,1.753-3.767,2.286C88.247,34.967,86.613,35.234,84.821,35.234L84.821,35.234z M84.821,28.646
	c1.167,0,2.13-0.391,2.885-1.176c0.755-0.791,1.13-1.84,1.13-3.141c0-1.308-0.375-2.353-1.123-3.135
	c-0.751-0.786-1.713-1.176-2.892-1.176c-0.782,0-1.479,0.181-2.094,0.539c-0.614,0.357-1.091,0.861-1.435,1.513
	c-0.345,0.652-0.517,1.406-0.517,2.259c0,0.852,0.172,1.605,0.517,2.262c0.344,0.655,0.82,1.16,1.435,1.518
	C83.342,28.469,84.039,28.646,84.821,28.646L84.821,28.646z"/>
<polygon fill="#00A34B" points="99.477,34.619 99.477,14.048 107.685,14.048 107.685,21.13 111.785,21.13 111.785,14.048 
	119.985,14.048 119.985,34.619 111.785,34.619 111.785,27.09 107.685,27.09 107.685,34.619 99.477,34.619 "/>
<polygon fill="#00A34B" points="123.688,34.619 123.688,14.048 131.896,14.048 131.896,21.454 136.438,14.048 145.436,14.048 
	138.454,23.805 145.644,34.619 136.204,34.619 131.896,26.798 131.896,34.619 123.688,34.619 "/>
<path fill="#00A34B" d="M158.275,35.234c-1.788,0-3.421-0.268-4.899-0.803c-1.476-0.533-2.734-1.302-3.786-2.298
	c-1.053-0.993-1.847-2.153-2.394-3.487c-0.547-1.325-0.819-2.765-0.819-4.317c0-1.549,0.272-2.988,0.819-4.321
	c0.547-1.333,1.338-2.492,2.383-3.481c1.045-0.991,2.301-1.749,3.772-2.289c1.471-0.539,3.111-0.807,4.924-0.807
	c1.814,0,3.447,0.269,4.913,0.807c1.468,0.54,2.718,1.298,3.76,2.277c1.035,0.98,1.824,2.143,2.377,3.479
	c0.549,1.34,0.82,2.786,0.82,4.335c0,1.552-0.271,2.992-0.82,4.331c-0.553,1.336-1.347,2.502-2.39,3.485
	c-1.039,0.99-2.298,1.753-3.767,2.286C161.702,34.967,160.07,35.234,158.275,35.234L158.275,35.234z M158.275,28.646
	c1.167,0,2.13-0.391,2.882-1.176c0.757-0.791,1.137-1.84,1.137-3.141c0-1.308-0.38-2.353-1.125-3.135
	c-0.753-0.786-1.717-1.176-2.894-1.176c-0.782,0-1.481,0.181-2.096,0.539c-0.613,0.357-1.09,0.861-1.432,1.513
	c-0.347,0.652-0.518,1.406-0.518,2.259c0,0.852,0.171,1.605,0.518,2.262c0.342,0.655,0.818,1.16,1.432,1.518
	C156.794,28.469,157.493,28.646,158.275,28.646L158.275,28.646z"/>
<path fill="#00A34B" d="M172.932,34.619V14.048h10.697c1.9,0,3.469,0.333,4.696,0.999c1.226,0.662,2.108,1.534,2.661,2.602
	c0.547,1.073,0.819,2.233,0.819,3.481c0,1.264-0.272,2.43-0.823,3.502c-0.551,1.071-1.442,1.94-2.666,2.61
	c-1.229,0.667-2.793,1.002-4.688,1.002h-2.492v6.375H172.932L172.932,34.619z M181.137,19.396v3.498h0.909
	c1.309,0,1.959-0.587,1.959-1.764c0-1.154-0.65-1.734-1.959-1.734H181.137L181.137,19.396z"/>
<path fill="#00A34B" d="M196.732,14.048h18.062V28.66h2.461v10.065h-6.977v-4.106h-10.67v4.106h-6.978V28.66
	c1.225-0.075,2.137-0.483,2.744-1.227c0.607-0.744,0.979-1.567,1.132-2.467c0.152-0.902,0.226-1.887,0.226-2.955V14.048
	L196.732,14.048z M204.122,20.008v2.915c0,1.586-0.16,2.821-0.488,3.692c-0.328,0.872-0.791,1.554-1.394,2.045h4.344v-8.652H204.122
	L204.122,20.008z"/>
</svg>
