<?xml version="1.0" encoding="utf-8"?>
<!-- Generator: Adobe Illustrator 17.1.0, SVG Export Plug-In . SVG Version: 6.00 Build 0)  -->
<!DOCTYPE svg PUBLIC "-//W3C//DTD SVG 1.1//EN" "http://www.w3.org/Graphics/SVG/1.1/DTD/svg11.dtd">
<svg version="1.1" id="Layer_1" xmlns="http://www.w3.org/2000/svg" xmlns:xlink="http://www.w3.org/1999/xlink" x="0px" y="0px"
	 viewBox="0 0 255.1 340.2" enable-background="new 0 0 255.1 340.2" xml:space="preserve">
<g>
	<defs>
		<rect id="SVGID_1_" y="0" width="255.1" height="340.2"/>
	</defs>
	<clipPath id="SVGID_2_">
		<use xlink:href="#SVGID_1_"  overflow="visible"/>
	</clipPath>
	<path clip-path="url(#SVGID_2_)" fill="#FFFFFF" d="M255.2,195.8c0,83-127.6,144.5-127.6,144.5S0,278.7,0,195.8v-166
		C0,29.8,46.6,0,127.6,0c81,0,127.6,29.8,127.6,29.8V195.8z"/>
	<path clip-path="url(#SVGID_2_)" fill="#010101" d="M246.1,194.4c0,78.5-118.5,136.7-118.5,136.7S9.1,272.8,9.1,194.4V37.4
		c0,0,43.3-28.2,118.5-28.2c75.3,0,118.5,28.2,118.5,28.2V194.4z"/>
	<path clip-path="url(#SVGID_2_)" fill="#FFFFFF" d="M127.6,52C46.6,52,0,81.8,0,81.8v8.5c0,0,46.6-29.8,127.6-29.8
		c81,0,127.6,29.8,127.6,29.8v-8.5C255.2,81.8,208.7,52,127.6,52"/>
	<path clip-path="url(#SVGID_2_)" fill-rule="evenodd" clip-rule="evenodd" fill="#F7B332" d="M140.8,143.3
		c5.7-2.2,15.5-2.7,21.4-0.4c-2.5,1-5.3,1.7-7.2,3.3c1.3,0.9,3.4,0.8,4.9,1.5c-2.2,2.4-5.4,3.5-7.9,5.5c-1.4-0.2-2.4-0.7-3.6-1.1
		c2-1.4,4.3-2.6,6.9-3.3c-5.9-4.3-17.5-1.7-23,1.1c-0.1-2.7,3.6-4.3,5.3-6.3c-4.2,0.8-7.7,3-10.2,5.7c-3.3-2.1-5.6-5.1-10.2-5.7
		c1.9,2,4.6,3.2,5.6,6.3c-5.9-2.7-16.7-5.1-23.4-1.5c2.1,1.3,4.6,2.2,6.9,3.3c-4.2,3.7-7.9-2.2-11.5-3.7c1.1-1.1,3.1-1.2,4.9-1.5
		c-1.7-1.9-4.1-3-7.2-3.3c1.3-1.6,4.6-1,6.6-1.8c5.5-0.2,10.6,0.2,14.5,1.8c-0.4-1.7-3.1-3.9-5.3-4.8c6.9,0.3,15.9,1.8,19.1,7.4
		c3.8-5.4,12.4-7.1,19.1-7.8C144.4,139.7,142.2,141,140.8,143.3"/>
	<path clip-path="url(#SVGID_2_)" fill-rule="evenodd" clip-rule="evenodd" fill="#F7B332" d="M90.1,152.9c-1-0.3-2.3,2.3-2,4.8
		c-0.8-0.1-0.3-1.6-1-1.8c-2.3,2.7,0.9,9.5-3,10c-0.5-6.2-0.8-13.7,2.3-17c6-2.5,9.4,3.5,13.8,5.2c-0.4,1.2-2.2,0.8-2.6,1.8
		c-1.2-1.1-2.4-2.2-4.6-2.2c0-0.4,0.4-0.3,0.7-0.4C92.6,151.6,88.9,155.3,90.1,152.9"/>
	<path clip-path="url(#SVGID_2_)" fill-rule="evenodd" clip-rule="evenodd" fill="#F7B332" d="M164.8,154c-1.1-0.6-2.1-1.3-3.9-1.1
		c0,0.4,0.4,0.3,0.7,0.4c-1.4,0.7-3.2,1.1-4.3,2.2c-1.3,0-1.9-0.8-3-1.1c1.1-1.3,3-2,4.9-3.3c2.3-1.5,5.5-4.4,8.9-2.2
		c3.1,3.3,2.8,10.8,2.3,17c-3.7-0.6-1.1-6.6-2.6-10c-1-0.1-0.7,1.2-1,1.9c-0.5-2-0.6-4.5-2.3-5.2C164.8,152.8,164.9,153.3,164.8,154
		"/>
	<path clip-path="url(#SVGID_2_)" fill-rule="evenodd" clip-rule="evenodd" fill="#F7B332" d="M103.6,175.1
		c-0.6,1.5-1.8,2.4-2.6,3.7c-9.5,5-16.9,12.4-20.7,23.7c0.7,0.8,1.2-1.6,2-1.8c2.1-2.5,4-5.2,6.6-7c2.9-3,6.4-5.4,10.5-7
		c-0.8,2.3-2.5,3.6-3.3,5.9c-6.4,4.1-10.5,10.7-12.8,19.2c0.8,0.1,1.8-2.6,3-3.3c1-1.4,2.1-2.6,3.3-3.7c2.4-2.2,4.7-4.4,7.9-5.5
		c-0.7,1.9-1.8,3.4-2.3,5.5c-5.6,6.5-9.8,14.7-9.9,27.4c2.1-7.3,5-13.6,8.6-19.2c1.5-0.9,2.6-4.2,3.9-4.1c-0.2,1.5-0.9,2.4-1,4.1
		c-4,6.6-6.9,14.4-7.6,24.8c-0.9,3.7-1.5,7.7-1.3,12.6c-6.3-7-9.2-22.2-6.3-35.1c-1.3,0.5-2,3-2.6,5.2c-0.6,2.3-0.9,4.8-1.3,7
		c-5.7-26,8.6-44.8,25-52.1H103.6z"/>
	<path clip-path="url(#SVGID_2_)" fill-rule="evenodd" clip-rule="evenodd" fill="#F7B332" d="M116.1,247.5c0.6,5.8,1.6,11,3,15.9
		c1.2-3.9,1.3-9.2,2.6-12.9c0.9,7.9,3,14.4,5.3,20.7c1.6-0.6,1.3-3.3,2.3-4.4c1.3-5.2,3.3-9.6,3.3-16.3c1.1,0.1,0.6,2,1,3
		c0.8,3.1,1.3,6.5,1.6,10c1.8-4.4,2.9-9.6,3-15.9c1.5,2.6,1.7,6.4,2,10.3c1.3-2.5,2.1-5.5,2-9.6c3.1,10.3-0.1,22.3-4.9,28.1
		c-1-2.7-0.8-6.8-2-9.2c-1,8-3.8,13.9-7.6,18.9c-3.9-3.1-5.7-8.6-7.6-14c0.1-1.8-0.6-2.8-0.3-4.8c-1.6,2-1.5,5.9-2,9.2
		c-5.4-5.5-7.9-17.1-5.6-28.1c0.5,3.4,1,6.8,2,9.6C114.9,254.6,115.1,250.5,116.1,247.5"/>
	<path clip-path="url(#SVGID_2_)" fill-rule="evenodd" clip-rule="evenodd" fill="#F7B332" d="M105.3,149.2c4.8-2,10.5,0.9,14.8,1.8
		c-1.9,0.6-5.3-0.4-7.9-0.4c5.5,2.5,11.2,5.2,14.3,11.8c-3.1-3.1-6.3-6.1-11.3-6.7C112.6,152.8,109.2,150.7,105.3,149.2"/>
	<path clip-path="url(#SVGID_2_)" fill-rule="evenodd" clip-rule="evenodd" fill="#F7B332" d="M142.5,151c-2-0.6-5.5,0.2-7.9,0.4
		c3.9-1.9,9.5-3.5,14.8-2.6c-3.7,2-7.4,4.1-10.2,7c-5,0.8-8.6,3.1-11.2,6.7C129.8,156.8,136.1,152.9,142.5,151"/>
	<path clip-path="url(#SVGID_2_)" fill-rule="evenodd" clip-rule="evenodd" fill="#F7B332" d="M72,206.1c-0.6-14.8,4.4-26,10.5-34.4
		c6.3-8.6,14.8-15.1,25.3-18.5c1.4,0.2,2.1,1.3,3.3,1.8c-9.1,1.3-15.5,5.8-19.4,12.9c4.2-1.3,7.9-3.2,13.5-3
		c-9.2,3.5-17.3,8.2-22.1,16.6c5.1-3.2,10.8-5.6,16.8-7.8c0.8,0,0.6,0.5,0,0.4c-1.9,1.6-4.5,2.4-6.3,4.1c-2.7,1.2-4.5,3.6-6.9,5.2
		c-3.7,4.5-7.8,8.4-9.9,14.8C74.9,200.5,73.4,203.3,72,206.1"/>
	<path clip-path="url(#SVGID_2_)" fill-rule="evenodd" clip-rule="evenodd" fill="#F7B332" d="M171.1,181.7c-1.2-3.8-5.5-7.4-8.9-10
		c-3.8-2.7-7.7-5.2-12.8-6.3c4.8-1.1,9.4,1.3,13.2,2.6c0.1-1.3-2.1-3.3-3-4.8c-1.4-1.2-2.5-2.8-4.3-3.7c-3.2-2.2-6.8-3.9-11.8-4.1
		c0.7-1.1,1.9-1.6,3-2.2c10.7,3.3,19.4,9.8,25.7,18.1c6.3,8.4,10.6,19.8,10.9,34.7c-2-2.4-3-5.7-5.3-7.8
		c-4.6-11.6-13.3-18.6-23.4-24c-0.6-0.3,0.4-0.6,0.3,0c1.5,0.1,2.6,0.6,3.6,1.1c1.6,0.5,3.2,1,4.6,1.8
		C165.9,178.4,168.6,180,171.1,181.7"/>
	<path clip-path="url(#SVGID_2_)" fill-rule="evenodd" clip-rule="evenodd" fill="#F7B332" d="M81.9,158.4c0.9,2.3-0.3,7,1,8.9
		c-2.3,4.7-6.8,6.9-10.2,10.3C74.3,171.1,78.1,163.8,81.9,158.4"/>
	<path clip-path="url(#SVGID_2_)" fill-rule="evenodd" clip-rule="evenodd" fill="#F7B332" d="M172.4,167.8c0.9-2.3,0.6-6,0.7-9.2
		c4.5,4.9,6.9,12.2,9.9,18.9c-1.7-0.3-3.7-3.5-6.3-4.1C175.4,171.4,173.9,169.6,172.4,167.8"/>
	<path clip-path="url(#SVGID_2_)" fill-rule="evenodd" clip-rule="evenodd" fill="#F7B332" d="M130.2,221c-1.3-3,2.4-7.6,4.3-4.7
		c0.2-4.2-3.6-2-7.7-2c-3.4-1.6-8.5-0.1-5.9,3.1c0.1-1,0.2-1.7,0.8-2c1.8,0.9,4.6,3.7,2.7,6.3c0.9,0.8,1.2,0.8,2.2,1.1
		c0.4-1.8-0.9-5,0.7-5.4c0.4,0.7,1.1,3.3,0.6,5.4C128.9,222.5,130.8,221.9,130.2,221"/>
	<path clip-path="url(#SVGID_2_)" fill-rule="evenodd" clip-rule="evenodd" fill="#F7B332" d="M97.4,163.6c-0.2,0-0.4,0.3,0,0.4
		c12.1-4.4,23.2,4,28.6,11.5c-2.1-9.2-8.1-14.1-17.8-14.8c3.2-2.6,9.8-0.7,13.2-0.7C113.9,155.2,102.1,157.9,97.4,163.6"/>
	<path clip-path="url(#SVGID_2_)" fill-rule="evenodd" clip-rule="evenodd" fill="#F7B332" d="M156.9,164c0.3,0,0.8-0.2,0.3-0.4
		c-4.6-5.7-17.1-8.7-24-3.3c2.3-0.5,4.7-0.9,7.2-1.1c2.1,0.5,5.1-0.1,5.9,1.8c-6,0-16.5,4.7-17.4,14.4
		C134.5,167.9,145.1,159.9,156.9,164"/>
	<path clip-path="url(#SVGID_2_)" fill-rule="evenodd" clip-rule="evenodd" fill="#F7B332" d="M174.4,202.8
		c-3.6-11.7-11.2-18.9-20.7-24c-0.8-1.2-1.7-2.3-2.6-3.3c1.3-0.6,3.5,1,4.6,1.8c1.7,0.6,3.1,1.4,4.3,2.6c3,1.6,4.9,4.3,7.6,6.3
		c5.5,6.9,9.9,15,10.9,27c0.2,5.3-0.4,9.6-1,14c-1.5-4.1-1.5-9.9-4.3-12.6c3,13.1-0.1,27.9-5.9,35.5c-0.7-4-0.4-8.9-1.6-12.2
		c-0.6-10.6-3.5-18.5-7.6-25.1c-0.1-1.5-0.6-2.5-1-3.7c-0.1-1.6,0.5,0,1,0c0.2,0.5,0.5,0.9,1,1.1c0.4,1.1,1.1,2,2,2.6
		c1,2.1,2.4,3.7,3.3,5.9c2.1,3.9,4.1,8,4.9,13.3c0.7-12.1-4.1-21-9.5-27.4c-0.6-1.9-1.4-3.7-2.3-5.2c2.8,0,5.6,3.3,7.9,5.2
		c2.4,2.1,4.3,4.8,6.3,7.4c-2.2-8.8-6.4-15.4-12.8-19.6c-0.8-2.2-2.2-3.7-3.3-5.5c3.6,0.2,7,4,10.2,5.9c2.7,2.9,5.5,5.7,7.9,8.9
		c0.1,0.3,0.3,0.4,0.3,0.7C174,202.5,174.1,202.8,174.4,202.8"/>
	<path clip-path="url(#SVGID_2_)" fill-rule="evenodd" clip-rule="evenodd" fill="#F7B332" d="M145.8,208c2.6-0.4,3.5-2.7,5.2-4.1
		c-0.1-3.1-0.1-6.7,0.7-9.6c0.5,3.6,1.2,7,1.3,11.1c-2.6,1.6-4.2,2.1-5.9,4.6v2.2c1,0.8,1,2.8,2.3,3.3c1.4-0.9,0.8-2,2-3.1
		c0.3,1.2,0.8,2,1.6,2.6c0.7-2.3,0.7-5.3,0.7-8.5c0.6-0.1,1.3,2.1,1.3,0.4c-0.7-2.4-1.2-5-1.6-7.8c1.1-0.4,1.7,2.6,2,0.7
		c-1-3.9-3.7-7.9-4.6-10.7c1.3,0,2,0.7,3.3,0.7c-0.8-5.1-3.2-8.5-5.6-11.8c0.3-0.8,2.1,0.1,2.3-0.7c-4-3.5-9.6-5.2-17.1-4.8
		c-0.3,0.9,0.3,2,0.4,3.3c-2.3,3.6-3,7.5-4.6,11.8c-1.8-5.5,1.8-9.2,1.9-12.6c-1.5,1.5-2.3,3.8-4.3,4.8c-1.1-1.8-2.4-3.5-3.9-4.8
		c0.6,2.6,2.7,5.6,3,8.8c0.1,1,0,2.8-1.1,3.8c-0.5-4.6-2-9-4.3-12.2c0.3-1.4,0.3-1.8,0.4-3c-7.5-0.3-13.5,1.1-17.1,5.2
		c0.9,0.1,2.3-0.3,2.3,0.7c-2.7,2.8-4.6,6.6-5.6,11.5c1.4,0,2.1-0.9,3.6-0.7c-2,3.2-3.6,6.8-4.9,10.7c0.1,2.1,1.3-1.9,2-0.4
		c-0.5,2.7-1.1,5.2-1.6,7.8c0.2,1.3,1.1-1.6,1.3-0.4c0,3.2-0.1,6.5,1,8.5c0.4-1.1,0.8-2.3,1.6-3c1,1.4,0.2,3.6,2,4.1
		c0.7-1.6,2.3-2.4,2-5.2c-1.4-3.1-3.8-4-5.9-6.3c0.3-3.8,0.5-7.8,1.6-10.7c0.1,3.7,0.6,6.9,0.3,10.2c1.7,1.4,2.6,3.2,5.3,3.5
		c0.5-3,2.7-6.1,4.3-6.7c-1.8,2.8-3,4.7-2.6,10c1.1,0.2,2.4-1.2,3-0.4c-1.1,0.2-2,0.7-2.6,1.5c0.9,1.1,2.4,1.5,3.3,2.6
		c-2,0.1-3.4-0.4-5-0.7c0.1,1.2-0.9,1.2-0.7,2.6c1.8,1.6,4.7,2.1,6.9,3.3c-2.7-0.4-5.6-0.6-7.6-1.8c-0.3,0.8-0.7,1.4-0.7,2.6
		c2.3,1.8,5.8,2.1,8.9,3c-3.4,0.1-6.6,0-8.9-1.1c-0.1,1.3,0.1,2.1,0.3,3c2.7,1,6.5,0.9,9.2,1.8c-3.1,0-5.7,0.7-8.6,0
		c2.8,8.5,12.5,3,17.4,0.4c0.3-1.8-0.4-2-0.3-4.2c-2.5-0.1-3.3-2.4-1.9-3.8c-3.2-1.8-8.3-2.9-8.3-6.8c0.9,0.4,2.4,1.8,3.2,2.2
		c1.5-3,2.2-3.3,2.1-3.2c3.1-0.4,4.9-0.5,6.8,0.4c4.1-1,4.6-1.1,7.4,0.1c0.5,0.7,1,2.5,1.8,2.8c0.3-0.5,1.2-1.2,2.4-2
		c0,3.5-4.2,4.8-7.4,6.3c1.5,2,0.9,2.8,0.1,3.1c0.1,0.7-1.6,0.9-2.7,1.2c0,2-0.3,1.9,0,4c4.9,2.6,14.7,8.2,17.4-0.4
		c-2.8,0.5-6.1,0.4-8.6-0.4c3.4-0.2,6.4-0.7,9.2-1.5c0.1-0.7,0.8-2.4,0-3c-1.9,1.1-6,1.6-8.6,0.7c3.7,0,6.4-1.1,8.9-2.6
		c-0.2-0.8-0.3-1.9-0.7-2.6c-2.1,0.8-5.3,2.2-7.6,1.5c3-0.3,4.8-2,7.2-3c-0.1-1.1-0.7-1.7-1-2.6c-1.5,0.2-3.7,2.3-5.3,1.1
		c1.7-0.4,3.5-1.3,4.4-2.6c-1.3-0.3-2.7-0.8-3.4-1.5c1.7,0,2.1,0.8,3,0.4c0.5-5.4-1.2-7.5-2.6-10.7
		C143.4,202.7,145.1,204.7,145.8,208 M119.2,186.9c-2,1.7-1.3,5.3-1.9,7.9c-1.5-0.3-1-1.2-2.1-1.6c-3.9-0.8-7.3-1.8-6.7-3.9
		c-1.4,0.1-2.2-0.5-3.2-1.1c3.1-0.3,7.8-1,10.5,1.2c-0.6-1.8-6.4-2.8-9-2.8c1.4-1.1-2.1-2.5,0-4.5c0.7,1.5,0.5,3.3,3.3,4.2
		c1-0.7,1.4-2.1,2.5-2.7c0.7,0.9-0.6,2.4,0.5,3.2c1.5,0,2.1-1.1,3-1.8c0.7,0.8-1,2.4-0.4,3.3C117.3,188.1,118,187.2,119.2,186.9
		 M134.6,187.7c0.8-0.7,2.5,0.6,3.3,1.1c1.2-0.7,0-2.1-0.3-3.2c1.3,0.3,1.9,1.3,3.1,1.7c1.7-0.7,0.9-2,0.7-3.2
		c1.4,0.3,2.1,1.3,2.5,2.7c3.1-0.9,3.7-2.4,3.6-4.1c2.8,1.1-0.9,3.5,0.2,4.1c-3.3,0.9-7.7,0.5-9.5,2.8c0.5,0.3,2-1,3.3-1.2
		c3.2-0.6,4.6,0.5,7.7,0c-0.2,0.7-1.9,1.5-2.9,1.2c-0.4,1.8-2.6,3.1-7.1,3.9c-1.8,0.3-0.9,1.4-2.7,1.7
		C135.6,192.8,137.9,189.4,134.6,187.7 M134.9,192.7c-5.3-1-6.2-0.5-7.6,2.4c-1-3.5-5.5-3-7.6-1.9c1-2.6,5.4-4.3,7.6-2
		C129.5,188.8,133.5,190.8,134.9,192.7 M107.3,192.8c1.5-0.4,3.9,3.8,6.9,3.9c4.5-0.2,4.5,1.3,2.4,0.9c-1,0-5.3,0.1-6.3,0.1
		c-0.1-0.5,0.3-0.6-0.1-0.6C108.8,196,107.9,194.6,107.3,192.8 M148.1,192.8c-1.6,1.4-2.8,3.2-4.6,4.3c-1.2,0-4.1,0.2-5.3,0.2
		c-0.6-0.3-0.6-1.2,2.4-0.9c0.4-0.1,1.1-0.3,1.6-0.3C144.4,194.7,144.3,193.5,148.1,192.8 M123.8,199.8c0.3,0.9-3.9,2.6-5.4,3.7
		c-0.8,1.1-0.5,2.1-1.5,3.1c1.6,0.6,2.2-2,5.6-1.6c-3.4,2.4-7,3.8-5.4,7.8c-6.1-5.4,1.4-11.8,3-17c1.5,1.3,0.4,4.2-0.6,5.2
		C121.2,200.7,122.7,200.3,123.8,199.8 M131.5,200.2c0.3-0.6,2.9,0.3,3.5,0.7c0.4-0.7-1.1-3.1-0.5-5.2c2.3,4.8,7.4,11.1,3.5,17
		c-0.2-3.1-1-5.6-5-7.4c2.1-1.1,3,0.8,4.6,1.3C136.9,203.1,134.8,202.3,131.5,200.2 M113.3,188.9c1.7,1.3,1.3,2.2,0.3,3.3
		 M141.2,192.6c-1.5-0.9-1.5-2.2-0.1-3.3"/>
	<path clip-path="url(#SVGID_2_)" fill-rule="evenodd" clip-rule="evenodd" fill="#F7B332" d="M157.6,259.3
		c-0.2-4.4,0.4-11.7-0.7-16.3c-1.2,4.6-2.1,9.5-3.6,13.7c-1.8,3.7-3.8,7.3-6.3,10.4c-0.2-1.9,0.6-4,0.7-6.3
		c0.1-5.9-1.8-12.6-3.6-16.6c1.2,0.2,2.2,2.1,3,3.7c0.8,1.8,1.5,3.9,1.6,5.9c1.1-6.9-0.8-13.6-2-19.2c2.7,2.5,3.8,6.9,5.3,10.7
		c0.9-6.3-0.6-13.1-2-18.1c2.9,0.9,4.5,6.5,5.6,10.7c1.1-6.5-0.8-12.9-2.3-17.7c4,3.9,5.4,10.7,6.9,17.4c1-4.4-0.1-9.8-0.3-14
		c-0.7-1.4-0.8-3.5-1.3-5.2c-0.5-1-0.2-1.3,0.3-0.4c0.4,2.4,1.4,4.1,2,6.3c0.6,3.1,1.2,6.2,1.6,9.6
		C162.9,244.6,161.7,253.6,157.6,259.3"/>
	<path clip-path="url(#SVGID_2_)" fill-rule="evenodd" clip-rule="evenodd" fill="#F7B332" d="M94.1,237.5c1.1-0.9,0.9-3.2,1.3-4.8
		c0.5-1.6,1.1-2.9,1.3-4.8c1.3-2.7,2.5-5.6,4.3-7.8c0.4,1.3-1.1,3.7-1.3,5.5c-0.4,2-0.6,4.3-1,6.3v5.9c1.7-3.9,2.6-8.7,5.6-11.1
		c-0.5,4.8-2.4,11.4-2,18.5c1.9-3.4,2.8-7.9,5.3-10.7c-0.5,5.1-2.6,11.6-2,19.2c1.1-3.8,2.4-7.4,4.6-10c-1.6,5.4-4.7,15.6-2.3,23.3
		c-5.3-5.7-8.5-13.8-9.9-24c-1.5,4-1.1,11.3-0.7,16.3c-3.4-3.5-4.4-9.6-5.3-15.9c-0.4-10.1,0.8-18.3,3.6-24.8c0.2-0.7,0.5,0.4,0,0.4
		c0.1,1.9-0.8,2.6-0.7,4.4c-0.8,1.5-0.4,4.2-1,5.9V237.5z"/>
	<path clip-path="url(#SVGID_2_)" fill-rule="evenodd" clip-rule="evenodd" fill="#F7B332" d="M122.1,231.2c0.5,0.4-0.9,1.7-1,2.6
		c1.1-1,2.5-1.6,3.3-3c0.8,0.1,0.2,1.6,0,1.8c1.2-0.4,1.6-1.6,2.6-2.2c1.5,0.2,2,1.5,3,2.2c0.7-0.1-0.4-0.9,0-1.8
		c1.1,1,2.4,1.8,3.3,3c0.5-0.2-0.4-2-1-2.2c0.9-0.2,2.9,1.6,3.9,2.6c0.4-0.1,0.2-1.4-0.1-1.4c2.7-0.3,6,2,6.7,5.1
		c-0.8,0.2-0.7-0.7-1.6-0.4c-0.6,0.5,0.6,2,0.3,3.3c-1.3,0.1-1-1.6-2.3-1.5c-0.2,0.7,0.2,3.9-0.7,4.8c-0.9-0.9-1.1-2.4-2.3-3
		c-1,1.9-1.2,4.6-3.3,5.2c-0.1-1.6-1.6-1.7-2-3c-1.8,0.9-2.1,3.5-4,4.4c-0.6-1.9-2-3-3-4.4c-0.9,0.9-2,1.5-2.3,3
		c-1.8-0.9-2.7-2.6-3-5.2c-1.4,0.3-1.8,1.6-2.3,3c-1.2-0.6-1-2.9-1-4.8c-1.1,0.2-1.2,1.4-2.3,1.5c0-1.4,0.3-2.3,0.7-3.3
		c-1-0.3-1.2,0.4-2,0.4c0.3-1.2,3.9-5,6.6-5.5c-0.2,0.3-0.3,1.3-0.3,1.8C119.4,233.2,120.9,232.4,122.1,231.2"/>
	<path clip-path="url(#SVGID_2_)" fill="#F7B332" d="M175.8,238.3c11,10.1,16.6,12.7,15,15.5c-1,1.7-14.8-11.3-16.8-13.1
		c0.2,2.5-1.6,5.3-1.6,5.3c19.3,15.8,32.6,20.5,32.8,20c0.2-0.5-1.1-9.8-29.2-34L175.8,238.3z"/>
	<path clip-path="url(#SVGID_2_)" fill="#F7B332" d="M78.7,232c-28.2,24.2-29.5,33.5-29.2,34c0.2,0.5,13.5-4.2,32.8-20
		c0,0-1.8-2.8-1.6-5.3c-2.1,1.8-15.9,14.8-16.8,13.1c-1.6-2.8,4-5.4,15-15.5L78.7,232z"/>
	<path clip-path="url(#SVGID_2_)" fill="#F7B332" d="M179.1,162.1c3-2.3,7-5.6,7-5.6l-1.5-2c0,0-3.8,3.3-6.8,5.7l-3.6-5.2
		c5-4,10.8-7.4,10.8-7.4l8.1,10.2c0,0-5.7,5.7-10.8,9.6L179.1,162.1z"/>
	<path clip-path="url(#SVGID_2_)" fill="#F7B332" d="M185.7,143.9l11.2,14.1l1.3-1.4l0.1-3.7l17-15.2c-0.6-0.2-1.2-0.6-1.7-1
		l-0.5,0.4l0-0.8c-0.5-0.4-0.9-0.8-1.3-1.3c-0.2-0.3-0.4-0.6-0.6-0.9l-0.2,4.9l-1.2,1.1l0.2-7.1l0.4-0.3c-0.2-0.6-0.4-1.3-0.5-1.9
		L191,144.1l-3.7-1.1L185.7,143.9z M194.9,143.6l-0.2,4.6l-1.1-1.4l0.1-2.3L194.9,143.6z M206.4,143l0.3-7.7l1.2-0.8l-0.2,7.5
		L206.4,143z M203.2,145.9l0.3-8.4l1.2-0.8l-0.3,8.1L203.2,145.9z M199.9,148.8l0.3-9l1.2-0.8l-0.3,8.8L199.9,148.8z M197.9,150.7
		l-0.7,0.6l-0.5-0.6l0.3-8.5l1.2-0.8L197.9,150.7z"/>
	<path clip-path="url(#SVGID_2_)" fill="#F7B332" d="M212,124.9c-2.8,2.2-3,6.8-0.3,10.1c2.7,3.4,7.1,4.3,10,2.1
		c2.8-2.2,3-6.8,0.3-10.1C219.4,123.6,214.9,122.7,212,124.9 M212.9,125.9c2.4-1.8,6.1-1.1,8.3,1.7c2.2,2.8,2.1,6.5-0.3,8.4
		c-2.4,1.8-6.1,1.1-8.3-1.7C210.4,131.5,210.5,127.8,212.9,125.9"/>
	<path clip-path="url(#SVGID_2_)" fill="#F7B332" d="M213.4,126.6c-2,1.6-2.1,4.8-0.2,7.2c1.9,2.4,5.1,3.1,7.1,1.5
		c2-1.6,2.1-4.8,0.2-7.2C218.6,125.7,215.5,125.1,213.4,126.6 M213.8,127.1c1.3-1,3.2-1,4.8,0c-1.4-0.5-2.8-0.4-4,0.4
		c-1.8,1.4-1.9,4.2-0.2,6.3c0.5,0.6,1.1,1.1,1.7,1.5c-0.9-0.3-1.8-0.9-2.5-1.8C211.9,131.4,212,128.5,213.8,127.1"/>
	<polygon clip-path="url(#SVGID_2_)" fill="#F7B332" points="178.1,139.6 199.3,166.4 202.8,163.7 181.6,136.8 	"/>
	<path clip-path="url(#SVGID_2_)" fill="#F7B332" d="M75.4,162.8c-3-2.3-7-5.6-7-5.6l1.5-2c0,0,3.8,3.3,6.8,5.7l3.6-5.2
		c-5-4-10.8-7.4-10.8-7.4l-8.1,10.2c0,0,5.7,5.7,10.7,9.6L75.4,162.8z"/>
	<path clip-path="url(#SVGID_2_)" fill="#F7B332" d="M67.2,143.7l-3.7,1.1l-18.9-13.4c-0.1,0.6-0.2,1.3-0.5,1.9l0.4,0.3l0.2,7.1
		l-1.2-1.1l-0.2-4.9c-0.2,0.3-0.4,0.6-0.6,0.9c-0.4,0.5-0.8,0.9-1.3,1.3l0,0.8l-0.5-0.4c-0.5,0.4-1.1,0.7-1.7,1l17,15.2l0.1,3.7
		l1.3,1.4l11.2-14.1L67.2,143.7z M60.8,145.2l0.1,2.3l-1.1,1.4l-0.2-4.6L60.8,145.2z M46.9,142.6l-0.3-7.5l1.2,0.8l0.3,7.7
		L46.9,142.6z M50.2,145.6l-0.3-8.1l1.2,0.8l0.3,8.4L50.2,145.6z M53.4,148.5l-0.3-8.8l1.2,0.8l0.3,9L53.4,148.5z M56.4,142l1.2,0.8
		l0.3,8.5l-0.5,0.6l-0.7-0.6L56.4,142z"/>
	<path clip-path="url(#SVGID_2_)" fill="#F7B332" d="M32.5,127.7c-2.7,3.4-2.5,7.9,0.3,10.1c2.8,2.2,7.3,1.3,10-2.1
		c2.7-3.4,2.5-7.9-0.3-10.1C39.6,123.4,35.2,124.3,32.5,127.7 M42,135c-2.2,2.8-5.9,3.6-8.3,1.7c-2.4-1.8-2.5-5.6-0.3-8.4
		c2.2-2.8,5.9-3.6,8.3-1.7C44,128.5,44.2,132.2,42,135"/>
	<path clip-path="url(#SVGID_2_)" fill="#F7B332" d="M34,128.8c-1.9,2.4-1.8,5.6,0.2,7.2c2,1.6,5.2,0.9,7.1-1.5
		c1.9-2.4,1.8-5.6-0.2-7.2C39.1,125.8,35.9,126.4,34,128.8 M40.9,134.2c-0.7,0.9-1.6,1.5-2.5,1.8c0.6-0.3,1.2-0.8,1.7-1.5
		c1.7-2.1,1.6-4.9-0.2-6.3c-1.1-0.9-2.6-1-3.9-0.4c1.6-0.9,3.4-1,4.8,0C42.5,129.3,42.6,132.1,40.9,134.2"/>
	<polygon clip-path="url(#SVGID_2_)" fill="#F7B332" points="76.5,140.3 55.3,167.1 51.8,164.4 73,137.6 	"/>
	<path clip-path="url(#SVGID_2_)" fill="#FFFFFF" d="M21.5,149.6l-3.8-1.1V145l14.8,4.5v4.4l-14.8,4.6V155l3.8-1.1V149.6z
		 M24.1,153.3l3.1-0.9c0.9-0.3,2-0.5,2.9-0.7v0c-0.9-0.2-2-0.4-2.9-0.7l-3.1-0.9V153.3z"/>
	<polygon clip-path="url(#SVGID_2_)" fill="#FFFFFF" points="32.6,170.2 29.8,170.2 29.8,164.6 17.7,164.6 17.7,161.2 32.6,161.2 	
		"/>
	<polygon clip-path="url(#SVGID_2_)" fill="#FFFFFF" points="24,181.5 24,176 20.5,176 20.5,182.1 17.7,182.1 17.7,172.7 
		32.6,172.7 32.6,181.8 29.8,181.8 29.8,176 26.7,176 26.7,181.5 	"/>
	<polygon clip-path="url(#SVGID_2_)" fill="#FFFFFF" points="32.6,188.4 26.9,188.4 26.9,194 32.6,194 32.6,197.3 17.7,197.3 
		17.7,194 23.9,194 23.9,188.4 17.7,188.4 17.7,185.1 32.6,185.1 	"/>
	<path clip-path="url(#SVGID_2_)" fill="#FFFFFF" d="M20.5,213.2c-0.4-0.6-1-1.9-1.3-3.6c-0.9-5,1.8-8.2,5.9-9
		c5-0.9,8.4,2.2,9.2,6.6c0.3,1.7,0.2,3.1,0,3.7l-2.7-0.2c0.2-0.7,0.3-1.7,0-2.9c-0.5-2.6-2.4-4.4-5.7-3.8c-2.9,0.5-4.5,2.6-3.9,5.5
		c0.2,1,0.6,2.1,1,2.7L20.5,213.2z"/>
	<polygon clip-path="url(#SVGID_2_)" fill="#FFFFFF" points="33.7,216.5 32.4,212.7 35,211.8 39,222.5 36.3,223.4 34.9,219.6 
		23.6,223.8 22.5,220.6 	"/>
	<path clip-path="url(#SVGID_2_)" fill="#FFFFFF" d="M39.5,224c0.6,0.7,1.5,2.2,2.3,3.7c1,1.8,1.4,3,1.4,4.2c0,1.2-0.5,2.3-1.7,3
		c-1.2,0.6-2.6,0.5-4-0.6l0,0c0.4,1.7-0.1,3.4-1.8,4.3c-1.2,0.6-2.4,0.6-3.5,0.2c-1.3-0.5-2.6-1.9-4-4.5c-0.8-1.4-1.3-2.6-1.5-3.3
		L39.5,224z M30.4,232.8c0.1,0.3,0.3,0.7,0.6,1.2c0.7,1.3,1.9,2.2,3.2,1.5c1.3-0.7,1.2-2.2,0.4-3.7l-0.5-1L30.4,232.8z M36.1,229.6
		l0.5,1c0.8,1.5,1.9,2,2.9,1.5c1-0.5,1.1-1.6,0.4-2.9c-0.3-0.6-0.6-1-0.8-1.2L36.1,229.6z"/>
	<path clip-path="url(#SVGID_2_)" fill="#FFFFFF" d="M48.3,250.6c-3.9,2.9-8,2.2-10.6-1.2c-2.6-3.5-1.4-7.6,2-10.1
		c3.6-2.6,7.9-2.3,10.5,1.2C52.9,244.2,51.6,248.2,48.3,250.6 M41.8,242.1c-2.3,1.7-3.2,4-1.9,5.8c1.3,1.8,3.8,1.6,6.2-0.1
		c2.1-1.6,3.2-4,1.9-5.8C46.6,240.2,44.1,240.4,41.8,242.1"/>
	<polygon clip-path="url(#SVGID_2_)" fill="#FFFFFF" points="78.2,270 68.4,281.1 65.9,278.9 73.9,269.8 69.9,266.3 61.9,275.4 
		59.4,273.2 69.2,262.1 	"/>
	<path clip-path="url(#SVGID_2_)" fill="#FFFFFF" d="M80.4,272c0.9,0.5,2.2,1.3,3.8,2.5c1.6,1.3,2.5,2.5,2.8,3.7
		c0.3,1.2,0,2.5-0.9,3.7c-0.9,1.1-2,1.8-3.2,1.9c-1.6,0.1-3.2-0.5-4.8-1.7c-0.3-0.3-0.6-0.5-0.9-0.8l-3.3,4.2l-2.6-2L80.4,272z
		 M78.9,279.4c0.2,0.2,0.4,0.5,0.8,0.8c1.4,1.1,2.8,1.1,3.8-0.1c0.8-1.1,0.6-2.3-0.7-3.3c-0.5-0.4-0.9-0.7-1.2-0.7L78.9,279.4z"/>
	<path clip-path="url(#SVGID_2_)" fill="#FFFFFF" d="M97.6,293.4c-2.8,4-6.9,4.7-10.5,2.2c-3.6-2.5-3.8-6.7-1.4-10.2
		c2.6-3.6,6.8-4.7,10.4-2.2C99.9,285.9,100,290.1,97.6,293.4 M88.7,287.4c-1.7,2.4-1.7,4.8,0.1,6.1c1.9,1.3,4.2,0.3,5.8-2.1
		c1.5-2.2,1.8-4.8-0.1-6.1C92.7,284.1,90.4,285.1,88.7,287.4"/>
	<path clip-path="url(#SVGID_2_)" fill="#FFFFFF" d="M111.2,292.9l-0.7,1.1c2.5,1.9,4.2,5.2,1.7,9c-2.5,3.9-6.1,3.7-9,2.2l-0.7,1.1
		l-2.6-1.7l0.7-1.1c-2.6-1.9-4.2-5.2-1.7-9c2.5-3.9,6.5-3.6,9-2.3l0.7-1.1L111.2,292.9z M106.6,294.2c-1.2-0.6-3.2-0.5-4.9,2.1
		c-1.6,2.4-0.9,4.4,0.1,5.3L106.6,294.2z M104.5,303.3c1.2,0.6,3.2,0.5,4.9-2.1c1.7-2.6,0.9-4.4-0.1-5.3L104.5,303.3z"/>
	<polygon clip-path="url(#SVGID_2_)" fill="#FFFFFF" points="124.3,305.8 118.9,305 118.4,308.5 124.4,309.4 124,312.1 114.6,310.7 
		116.9,296 125.9,297.4 125.5,300.1 119.8,299.2 119.3,302.3 124.7,303.1 	"/>
	<path clip-path="url(#SVGID_2_)" fill="#FFFFFF" d="M140,310.3c-0.6,0.4-1.9,0.9-3.7,1.1c-5.1,0.7-8.1-2.1-8.7-6.3
		c-0.7-5,2.5-8.3,7-8.9c1.7-0.2,3.1-0.1,3.7,0.2l-0.3,2.7c-0.7-0.2-1.7-0.3-2.9-0.2c-2.6,0.4-4.5,2.2-4,5.5c0.4,2.9,2.4,4.6,5.4,4.2
		c1-0.1,2.1-0.5,2.7-0.8L140,310.3z"/>
	
		<rect x="136.1" y="300.7" transform="matrix(-0.2324 -0.9726 0.9726 -0.2324 -117.2469 512.1789)" clip-path="url(#SVGID_2_)" fill="#FFFFFF" width="14.8" height="3.4"/>
	<path clip-path="url(#SVGID_2_)" fill="#FFFFFF" d="M147.5,292.7l2.3,3.7c1.2,2,2.4,4.1,3.4,5.8l0.1,0c-0.3-1.9-0.4-4.1-0.5-5.9
		l-0.3-6.6l2.9-1.8l7.8,12.6l-2.6,1.6l-2.3-3.7c-1.2-1.9-2.2-3.7-3.1-5.5l-0.1,0c0.3,1.9,0.6,4,0.6,5.8l0.2,6.1l-3.3,2l-7.8-12.6
		L147.5,292.7z M147.5,288.7c0.5,0.7,0.9,1,1.5,0.6c0.6-0.4,0.6-0.9,0.2-1.7l1.9-1.2c0.9,1.7,0.3,3-1.4,4c-1.7,1-3,0.9-4.2-0.6
		L147.5,288.7z"/>
	<polygon clip-path="url(#SVGID_2_)" fill="#FFFFFF" points="160.6,284.3 163.9,289 168.4,285.8 165.1,281.1 167.9,279.2 
		176.4,291.4 173.6,293.3 170.1,288.2 165.5,291.4 169.1,296.5 166.3,298.4 157.8,286.2 	"/>
	<path clip-path="url(#SVGID_2_)" fill="#FFFFFF" d="M185.4,274.7c3,3.8,2.6,7.9-0.8,10.7c-3.4,2.7-7.5,1.7-10.2-1.6
		c-2.8-3.5-2.6-7.8,0.8-10.6C178.8,270.4,182.9,271.5,185.4,274.7 M177.2,281.5c1.8,2.3,4.2,3,5.9,1.6c1.8-1.4,1.4-3.9-0.4-6.2
		c-1.7-2.1-4.1-3.1-5.9-1.6C175,276.8,175.4,279.3,177.2,281.5"/>
	<path clip-path="url(#SVGID_2_)" fill="#FFFFFF" d="M179.4,267.1c-0.6-0.6-0.5-1.6,0.1-2.1c0.6-0.5,1.5-0.5,2.1,0.2
		c0.5,0.6,0.5,1.5-0.1,2.1C180.9,267.8,180,267.7,179.4,267.1 M182.9,264c-0.6-0.6-0.5-1.6,0.1-2.1c0.6-0.6,1.5-0.5,2.1,0.2
		c0.5,0.6,0.5,1.5-0.1,2.1C184.3,264.8,183.4,264.7,182.9,264 M185.1,265.2l9.8,11.1l-2.5,2.2l-9.8-11.1L185.1,265.2z"/>
	<path clip-path="url(#SVGID_2_)" fill="#FFFFFF" d="M207.6,240.5l2.2,1.7l-4,5.2l2,1.6c0.3-0.4,0.7-1,1-1.5
		c0.9-1.2,2.2-2.2,3.5-2.6c1.2-0.4,2.6-0.2,3.9,0.8c1.2,0.9,1.7,2,1.8,3.2c0.1,1.9-0.9,4-2.3,5.8c-1,1.3-1.8,2.2-2.4,2.7l-11.7-9
		L207.6,240.5z M213.4,253.3c0.3-0.3,0.6-0.6,0.9-1c0.5-0.6,0.8-1.5,0.7-2.2c0-0.6-0.3-1.2-0.9-1.6c-0.6-0.5-1.2-0.5-1.8-0.4
		c-0.7,0.2-1.4,0.7-1.9,1.4c-0.2,0.3-0.5,0.6-0.7,1L213.4,253.3z"/>
	<polygon clip-path="url(#SVGID_2_)" fill="#FFFFFF" points="223,232 220.2,236.7 223.3,238.4 226.3,233.2 228.7,234.5 224,242.7 
		211.1,235.3 215.7,227.4 218.1,228.8 215.2,233.8 217.9,235.3 220.6,230.6 	"/>
	<path clip-path="url(#SVGID_2_)" fill="#FFFFFF" d="M218.8,223.3c-0.2-1.2-0.2-2.8,0.5-4.7c1.1-3,3.3-4.3,5.4-3.5
		c1.7,0.7,2.4,2.3,2.2,4l0,0c0.9-1.6,2.6-2.7,4.5-2c3.1,1.2,3,4.7,2,7.3c-0.5,1.4-1.4,2.9-2.5,3.8l-2.2-1.6c0.6-0.5,1.6-1.8,2.1-3
		c0.6-1.6,0.3-2.8-0.9-3.2c-1.5-0.6-2.5,0.9-2.9,2.2l-0.5,1.3l-2.3-0.9l0.5-1.3c0.5-1.4,0.3-2.7-0.8-3.2c-0.9-0.3-1.8,0.2-2.3,1.5
		c-0.4,1.1-0.4,2.4-0.3,3.4L218.8,223.3z"/>
	<polygon clip-path="url(#SVGID_2_)" fill="#FFFFFF" points="224.5,197 239.2,199.1 238.7,202.5 226.7,200.7 226,205.9 237.9,207.7 
		237.4,211 222.8,208.9 	"/>
	<polygon clip-path="url(#SVGID_2_)" fill="#FFFFFF" points="232.9,182.4 232.9,187.9 236.4,187.9 236.4,181.8 239.2,181.8 
		239.2,191.3 224.3,191.3 224.3,182.1 227.1,182.1 227.1,187.9 230.2,187.9 230.2,182.4 	"/>
	<path clip-path="url(#SVGID_2_)" fill="#FFFFFF" d="M224.3,172.6h6.2v-0.3l-6.2-4.1v-4.1l6.6,5.2c0.5-1.9,1.8-2.8,3.6-3.4
		c1.6-0.5,3.2-1,4.7-1.7v3.6c-1,0.5-2.2,0.8-3.3,1.1c-1.7,0.5-2.9,1.2-2.9,3v0.6h6.2v3.3h-14.8V172.6z"/>
	<path clip-path="url(#SVGID_2_)" fill="#FFFFFF" d="M224.3,155.9h4.4c2.4,0,4.7,0,6.7,0.2V156c-1.7-0.8-3.7-1.8-5.3-2.6l-5.8-3.2
		v-3.4h14.8v3.1h-4.4c-2.3,0-4.3,0-6.3-0.2v0.1c1.8,0.7,3.7,1.6,5.3,2.5l5.3,3v3.8h-14.8V155.9z"/>
	<path clip-path="url(#SVGID_2_)" fill="#FFFFFF" d="M59.8,101.2l27.3-4.5l4.4,26.9l-7.9,1.3L80,102.6l-11.7,1.9l1.9,11.5
		c0.5,3.3,0.8,5.6,0.7,7c-0.1,1.4-0.7,2.5-1.8,3.4c-1.1,0.9-3,1.6-5.6,2c-0.9,0.2-2.6,0.4-5,0.6l-0.7-4.2l1.8-0.3
		c1.6-0.3,2.7-0.6,3.2-1c0.5-0.4,0.7-1.2,0.5-2.4l-0.8-4.6L59.8,101.2z"/>
	<polygon clip-path="url(#SVGID_2_)" fill="#FFFFFF" points="115.1,121.9 115.3,94.7 144.6,94.9 144.5,99.5 123.3,99.3 123.2,105.4 
		143,105.5 143,110.1 123.2,109.9 123.1,117.3 145.2,117.5 145.1,122.1 	"/>
	<path clip-path="url(#SVGID_2_)" fill="#FFFFFF" d="M172.2,97.3l15.5,2.8c3.1,0.6,5.3,1.1,6.8,1.5c1.5,0.5,2.8,1.1,3.8,1.8
		c1.1,0.8,1.9,1.7,2.6,2.8c0.6,1.1,0.8,2.2,0.6,3.4c-0.2,1.3-0.9,2.3-2.1,3.2c-1.2,0.9-2.6,1.4-4.4,1.6c2.3,0.9,3.9,2,5,3.4
		c1.1,1.4,1.5,2.8,1.2,4.4c-0.2,1.2-0.8,2.3-1.9,3.3c-1,1-2.3,1.7-3.9,2.1c-1.5,0.4-3.4,0.5-5.5,0.3c-1.3-0.1-4.5-0.7-9.5-1.5
		l-13.2-2.4L172.2,97.3z M177.3,113.8L176,121l7.3,1.3c2.8,0.5,4.6,0.8,5.4,0.8c1.2,0.1,2.2-0.1,3-0.5c0.8-0.4,1.3-1.1,1.5-2.1
		c0.1-0.8,0-1.5-0.5-2.2c-0.5-0.7-1.2-1.2-2.2-1.7c-1-0.5-3.3-1-6.9-1.7L177.3,113.8z M179.2,103.2l-1.1,6.2l5.1,0.9
		c3.1,0.6,5,0.9,5.7,0.9c1.4,0.1,2.5,0,3.3-0.4c0.9-0.4,1.4-1,1.5-1.9c0.2-0.8-0.1-1.6-0.6-2.2c-0.6-0.6-1.5-1.1-2.8-1.5
		c-0.8-0.2-3-0.6-6.7-1.3L179.2,103.2z"/>
	<path clip-path="url(#SVGID_2_)" fill="#FFFFFF" d="M40,91c0.4,1.9,0.3,5-3.9,6.4c-3.1,1-6.3,0.6-7.9-4.1c-2.1-6.3,2.4-8.1,3.6-8.5
		c4.2-1.4,6.2,0.9,6.9,2.6l-2.8,0.9c-0.9-1.9-2.5-1.5-3.2-1.2c-0.6,0.2-2.8,1.1-1.5,5.1c0.8,2.3,2.3,3.5,4.2,2.9
		c1.8-0.6,1.9-2.2,1.8-3.1L40,91z"/>
	<polygon clip-path="url(#SVGID_2_)" fill="#FFFFFF" points="49.3,93 46.5,93.7 43.2,81.6 53.6,78.8 56.8,91 53.9,91.8 51.3,81.9 
		46.7,83.2 	"/>
	<polygon clip-path="url(#SVGID_2_)" fill="#FFFFFF" points="70.3,80.3 70.8,82.6 64.7,83.8 65.3,86.6 72.3,85.2 72.8,87.6 
		62.9,89.6 60.4,77.3 70.1,75.3 70.6,77.7 63.8,79.1 64.3,81.6 	"/>
	<polygon clip-path="url(#SVGID_2_)" fill="#FFFFFF" points="85.4,83.1 83.9,73.1 86.8,72.7 88.3,82.7 90.1,82.5 90.7,87.7 
		88.1,88.1 87.7,85.3 77.9,86.7 76.1,74.2 79.1,73.8 80.5,83.8 	"/>
	<polygon clip-path="url(#SVGID_2_)" fill="#FFFFFF" points="98.4,84.1 95.4,84.3 94.3,71.8 105,70.9 106.1,83.4 103.1,83.7 
		102.2,73.6 97.5,74 	"/>
	
		<rect x="107.2" y="75.2" transform="matrix(-4.570910e-002 -0.999 0.999 -4.570910e-002 42.0436 193.6119)" clip-path="url(#SVGID_2_)" fill="#FFFFFF" width="12.6" height="3"/>
	<path clip-path="url(#SVGID_2_)" fill="#FFFFFF" d="M134.2,80.2l-0.1,5.3l-2.6,0l0-2.8l-8.5,0.1l0,2.8l-2.6,0l-0.2-5.3l1.2,0
		c1.4-2.2,1.9-4.6,1.9-7.3l0-2.9l9.1-0.1l0.1,10.2L134.2,80.2z M126.1,72.5l0,1.5c0,2.8-0.4,4.6-1.4,6.2l4.8,0l-0.1-7.7L126.1,72.5z
		"/>
	<path clip-path="url(#SVGID_2_)" fill="#FFFFFF" d="M145.7,70.5c2.6,0.1,4.7,1.2,4.6,4.3c-0.2,3.9-3.5,4-5,4l-2.8-0.1l-0.2,4.3
		l-3-0.1l0.6-12.6L145.7,70.5z M142.6,76.2l2.3,0.1c1.4,0.1,2.1-0.4,2.2-1.6c0.1-1.7-1.4-1.7-2-1.7l-2.3-0.1L142.6,76.2z"/>
	<path clip-path="url(#SVGID_2_)" fill="#FFFFFF" d="M155.2,77.4c0.3-2.9,2.1-6.5,7-6c4.3,0.4,6.1,3.5,5.7,7.3c-0.4,3.8-2.7,6.4-7,6
		C156,84.2,154.9,80.3,155.2,77.4 M164.7,78.4c0.1-1.1,0.3-4.2-2.7-4.5c-2-0.2-3.3,1-3.6,3.9c-0.3,3.3,1.1,4.3,2.7,4.5
		C164.2,82.5,164.6,79.4,164.7,78.4"/>
	<path clip-path="url(#SVGID_2_)" fill="#FFFFFF" d="M175.6,81.8c-0.2,1.3,0.5,2.4,2.6,2.7c2.1,0.3,2.7-0.5,2.8-1.2
		c0.2-1.4-1.2-1.7-1.9-1.9l-1.8-0.3l0.4-2.3l1.5,0.2c0.8,0.1,2.1,0.2,2.3-1.1c0.2-1.5-1.8-1.8-2.2-1.9c-0.6-0.1-2.2-0.3-2.6,1.6
		l-2.9-0.5c0.7-3.3,3-4,6.2-3.5c2.8,0.4,5.1,1.7,4.7,4.3c-0.3,2-1.9,2.3-2.8,2.4l0,0c1.7,0.6,2.6,1.7,2.3,3.6
		c-0.5,3.2-3.7,3.2-6.4,2.8c-2.5-0.4-5.4-1.5-4.9-5.6L175.6,81.8z"/>
	<path clip-path="url(#SVGID_2_)" fill="#FFFFFF" d="M202.1,88.9l-1.3,5.1l-2.6-0.6l0.6-2.8l-8.3-1.8l-0.6,2.8l-2.6-0.6l1-5.2
		l1.2,0.3c1.9-1.8,2.9-4.1,3.4-6.7l0.6-2.8l8.9,2l-2.2,9.9L202.1,88.9z M195.9,79.6l-0.3,1.5c-0.6,2.8-1.4,4.4-2.8,5.8l4.7,1.1
		l1.7-7.5L195.9,79.6z"/>
	
		<rect x="203.3" y="85.4" transform="matrix(0.2653 -0.9642 0.9642 0.2653 70.1565 265.9236)" clip-path="url(#SVGID_2_)" fill="#FFFFFF" width="12.6" height="3"/>
	<path clip-path="url(#SVGID_2_)" fill="#FFFFFF" d="M215,92.4c2.5,1.2,3.4-1,4.1-3l2-5.7l8.9,2.9l-4,12l-2.8-0.9l3.2-9.6l-3.4-1.1
		l-1.5,4.1c-0.8,2.3-2.5,6-7.3,3.7L215,92.4z"/>
	<path clip-path="url(#SVGID_2_)" fill="#FFFFFF" d="M23.5,35.8l5.7-1.7l9.9,11.4l1.1-14.7l5.3-1.6L42.8,51
		c-0.3,2.4-0.8,4.2-1.4,5.6s-1.7,2.3-3.3,2.8c-1.5,0.5-2.7,0.7-3.6,0.8l-1.1-3.8c0.7-0.2,1.4-0.3,2-0.5c1.2-0.4,2-0.8,2.4-1.4
		c0.4-0.6,0.6-1.7,0.6-3.2L23.5,35.8z"/>
	<path clip-path="url(#SVGID_2_)" fill="#FFFFFF" d="M57.6,26.4l5.3-1l2.1,11.1c1.2-0.3,1.9-0.8,2.2-1.4c0.3-0.6,0.7-2,1.2-4.4
		c0.6-3,1.3-5,2.3-5.9c1-0.9,2.7-1.6,5.1-2c0.1,0,0.4-0.1,0.8-0.2l0.7,3.9l-0.8,0.1c-1.1,0.2-1.8,0.5-2.3,0.8
		c-0.4,0.4-0.8,0.8-1,1.4s-0.5,1.8-0.7,3.6c-0.2,1-0.4,1.8-0.6,2.5c-0.3,0.7-0.8,1.4-1.7,2.1c1.2,0.1,2.3,0.6,3.3,1.5
		c1,0.9,2.1,2.1,3.3,3.8l4.9,6.5L75.4,50L71,43.9c-0.1-0.1-0.2-0.3-0.4-0.5c-0.1-0.1-0.4-0.5-0.9-1.1c-0.9-1.2-1.6-1.8-2.1-2.1
		s-1.2-0.3-2.1-0.1l2.1,11.4l-5.3,1L57.6,26.4z"/>
	<path clip-path="url(#SVGID_2_)" fill="#FFFFFF" d="M91.3,47.7l-2.2-26.4l8.6-0.7c3.2-0.3,5.4-0.3,6.4-0.1c1.5,0.3,2.9,1,4,2.3
		c1.1,1.2,1.8,2.9,2,5c0.1,1.6,0,3-0.5,4.2c-0.5,1.2-1.2,2.1-2,2.8c-0.9,0.7-1.7,1.2-2.7,1.5c-1.3,0.4-3.1,0.6-5.5,0.8l-3.5,0.3
		l0.8,10L91.3,47.7z M94.8,25.3l0.6,7.5l2.9-0.2c2.1-0.2,3.5-0.4,4.2-0.8c0.7-0.3,1.2-0.8,1.6-1.4c0.4-0.6,0.5-1.3,0.4-2.1
		c-0.1-1-0.4-1.7-1-2.3c-0.6-0.6-1.4-0.9-2.2-1c-0.6-0.1-1.9,0-3.9,0.1L94.8,25.3z"/>
	<path clip-path="url(#SVGID_2_)" fill="#FFFFFF" d="M143.4,45.9l-5.8,0l-2.3-6l-10.6-0.1l-2.2,6l-5.7,0l10.5-26.4l5.7,0L143.4,45.9
		z M133.6,35.3l-3.6-9.9l-3.7,9.8L133.6,35.3z"/>
	<path clip-path="url(#SVGID_2_)" fill="#FFFFFF" d="M151.9,18.5l0.4-4.3l4.3,0.4l-0.4,4.3L151.9,18.5z M152.9,46.7l2.3-26.4
		l5.3,0.5l-2.3,26.4L152.9,46.7z M159.6,19.2l0.4-4.3l4.4,0.4l-0.4,4.3L159.6,19.2z"/>
	<polygon clip-path="url(#SVGID_2_)" fill="#FFFFFF" points="170.1,48.4 174.6,22.3 179.9,23.2 178.1,33.5 188.5,35.3 190.2,25 
		195.5,25.9 191,52 185.7,51.1 187.7,39.7 177.4,37.9 175.4,49.3 	"/>
	<path clip-path="url(#SVGID_2_)" fill="#FFFFFF" d="M225.7,61.7l-5.6-1.7l-0.5-6.4l-10.1-3.1l-3.8,5.1l-5.4-1.6l17.5-22.4l5.4,1.6
		L225.7,61.7z M219.3,48.8l-0.7-10.5l-6.3,8.4L219.3,48.8z"/>
</g>
<g>
</g>
<g>
</g>
<g>
</g>
<g>
</g>
<g>
</g>
<g>
</g>
</svg>
