<?xml version="1.0" encoding="utf-8"?>
<!-- Generator: Adobe Illustrator 17.1.0, SVG Export Plug-In . SVG Version: 6.00 Build 0)  -->
<!DOCTYPE svg PUBLIC "-//W3C//DTD SVG 1.1//EN" "http://www.w3.org/Graphics/SVG/1.1/DTD/svg11.dtd">
<svg version="1.1" id="Layer_1" xmlns="http://www.w3.org/2000/svg" xmlns:xlink="http://www.w3.org/1999/xlink" x="0px" y="0px"
	 viewBox="0 312.5 2000 1375" enable-background="new 0 312.5 2000 1375" xml:space="preserve">
<g id="ua">
	<g>
		<path fill="#DDD821" d="M1937.5,312.5H62.5C28.1,312.5,0,340.6,0,375v1250c0,34.4,28.1,62.5,62.5,62.5h875h125h875
			c34.4,0,62.5-28.1,62.5-62.5V375C2000,340.6,1971.9,312.5,1937.5,312.5z"/>
	</g>
	<path fill="none" d="M1937.5,968.8"/>
	<g>
		<path fill="#32B5E4" d="M1937.5,312.5H62.5C28.1,312.5,0,325,0,343.8v625c0,18.8,28.1,31.3,62.5,31.3h875h125h875
			c34.4,0,62.5-12.5,62.5-31.3v-625C2000,325,1971.9,312.5,1937.5,312.5z"/>
	</g>
</g>
</svg>
