<?xml version="1.0" encoding="utf-8"?>
<!-- Generator: Adobe Illustrator 17.1.0, SVG Export Plug-In . SVG Version: 6.00 Build 0)  -->
<!DOCTYPE svg PUBLIC "-//W3C//DTD SVG 1.1//EN" "http://www.w3.org/Graphics/SVG/1.1/DTD/svg11.dtd">
<svg version="1.1" id="ru" xmlns="http://www.w3.org/2000/svg" xmlns:xlink="http://www.w3.org/1999/xlink" x="0px" y="0px"
	 viewBox="0 312.5 2000 1375" enable-background="new 0 312.5 2000 1375" xml:space="preserve">
<path fill="none" d="M1937.5,968.8"/>
<g>
	<path fill="#DB3826" d="M1937.5,312.5H62.5C28.1,312.5,0,340.6,0,375v1250c0,34.4,28.1,62.5,62.5,62.5h875h125h875
		c34.4,0,62.5-28.1,62.5-62.5V375C2000,340.6,1971.9,312.5,1937.5,312.5z"/>
</g>
<g>
	<path fill="#465CAA" d="M1937.5,312.5H62.5C28.1,312.5,0,331.3,0,356.3v853.1c0,21.9,28.1,40.6,62.5,40.6h875h125h875
		c34.4,0,62.5-18.8,62.5-43.8v-850C2000,331.3,1971.9,312.5,1937.5,312.5z"/>
</g>
<g>
	<path fill="#F8FCFF" d="M1937.5,312.5H62.5c-34.4,0-62.5,9.4-62.5,21.9v425c0,12.5,28.1,21.9,62.5,21.9h875h125h875
		c34.4,0,62.5-9.4,62.5-21.9v-425C2000,321.9,1971.9,312.5,1937.5,312.5z"/>
</g>
</svg>
