<?xml version="1.0" encoding="utf-8"?>
<!-- Generator: Adobe Illustrator 17.1.0, SVG Export Plug-In . SVG Version: 6.00 Build 0)  -->
<!DOCTYPE svg PUBLIC "-//W3C//DTD SVG 1.1//EN" "http://www.w3.org/Graphics/SVG/1.1/DTD/svg11.dtd">
<svg version="1.1" xmlns="http://www.w3.org/2000/svg" xmlns:xlink="http://www.w3.org/1999/xlink" x="0px" y="0px"
	 viewBox="0 0 1000 831" enable-background="new 0 0 1000 831" xml:space="preserve">
<g id="Layer_2" display="none">
	<rect y="0" display="inline" fill="#0B2933" width="1000" height="831"/>
</g>
<g id="Layer_1">
	<g>
		<path fill-rule="evenodd" clip-rule="evenodd" fill="#F7B332" d="M567.1,104.8c28.5-10.9,77.5-13.4,107.3-1.9
			c-12.6,5.1-26.5,8.6-36.3,16.7c6.6,4.4,17.2,4.2,24.8,7.4c-10.9,11.9-27.3,17.6-39.6,27.8c-6.9-0.9-12.2-3.6-18.2-5.6
			c10.1-7.2,21.6-12.8,34.7-16.7c-29.6-21.5-87.8-8.4-115.6,5.6c-0.4-13.4,18.2-21.5,26.4-31.5c-21.2,4-38.7,14.9-51.2,28.7
			c-16.6-10.5-27.9-25.8-51.2-28.7c9.6,10.3,23,16.2,28.1,31.5c-29.6-13.7-83.8-25.7-117.2-7.4c10.6,6.6,23,11.2,34.7,16.7
			c-21,18.4-39.8-11-57.8-18.5c5.6-5.5,15.7-5.8,24.8-7.4c-8.7-9.4-20.8-15-36.3-16.7c6.5-8.2,22.9-5.2,33-9.3
			c27.7-0.9,53,1,72.6,9.3c-1.8-8.5-15.4-19.7-26.4-24.1c34.6,1.3,79.5,9.1,95.8,37.3c19.1-27,62.3-35.9,95.8-39.1
			C585.1,86.7,573.8,93.2,567.1,104.8"/>
		<path fill-rule="evenodd" clip-rule="evenodd" fill="#F7B332" d="M312.8,153c-5-1.3-11.7,11.5-9.9,24.1c-3.9-0.6-1.6-8.1-5-9.3
			c-11.4,13.4,4.6,47.8-14.8,50.1c-2.5-31.3-3.8-68.8,11.5-85.3c30.1-12.7,47.3,17.6,69.4,26c-1.9,5.9-10.8,3.9-13.2,9.3
			c-6.3-5.3-12.2-11-23.1-11.1c0.1-1.8,2-1.4,3.3-1.9C325.3,146.4,306.9,165.3,312.8,153"/>
		<path fill-rule="evenodd" clip-rule="evenodd" fill="#F7B332" d="M687.6,158.5c-5.5-3.1-10.7-6.6-19.8-5.6c0,1.8,2,1.4,3.3,1.9
			c-7.1,3.7-16.1,5.4-21.5,11.1c-6.5-0.1-9.6-4.1-14.9-5.6c5.5-6.5,15.1-10.2,24.8-16.7c11.5-7.8,27.5-22.1,44.6-11.1
			c15.3,16.5,14.1,54,11.6,85.3c-18.4-3-5.3-33.3-13.2-50.1c-5-0.7-3.4,6-5,9.3c-2.6-10.1-3.2-22.4-11.5-26
			C687.2,152.8,687.7,155.3,687.6,158.5"/>
		<path fill-rule="evenodd" clip-rule="evenodd" fill="#F7B332" d="M380.5,264.3c-3.2,7.5-9.2,11.9-13.2,18.5
			c-47.7,24.9-84.6,62-104,118.7c3.3,4.2,5.9-8.1,9.9-9.3c10.5-12.4,19.8-25.9,33-35.2c14.7-15,32-27.1,52.8-35.2
			c-4.2,11.3-12.6,18-16.5,29.7c-31.9,20.4-52.4,53.6-64.4,96.4c3.9,0.6,9.2-13.1,14.9-16.7c4.8-6.9,10.3-13.1,16.5-18.5
			c11.8-10.9,23.3-22,39.6-27.8c-3.6,9.5-8.8,17.3-11.5,27.8c-28.2,32.6-49,73.6-49.5,137.2c10.3-36.6,25-68.4,42.9-96.4
			c7.6-4.5,13.3-20.9,19.8-20.4c-0.9,7.6-4.7,12-5,20.4c-20.2,32.9-34.7,72.3-38,124.2c-4.5,18.5-7.4,38.6-6.6,63
			c-31.5-35.3-46.1-111.2-31.4-176.2c-6.5,2.3-10.1,14.8-13.2,26c-3.1,11.3-4.7,24.3-6.6,35.2c-28.4-130.6,43-224.9,125.5-261.4
			H380.5z"/>
		<path fill-rule="evenodd" clip-rule="evenodd" fill="#F7B332" d="M443.2,627.7c2.9,28.8,7.9,55.4,14.9,79.7
			c6.1-19.7,6.4-46,13.2-64.9c4.5,39.4,14.9,72.3,26.4,103.8c7.9-2.8,6.3-16.4,11.6-22.3c6.5-26.1,16.5-48.3,16.5-81.6
			c5.7,0.4,3,10.2,5,14.8c3.9,15.5,6.4,32.4,8.3,50.1c8.9-22.2,14.4-48.1,14.9-79.7c7.3,12.8,8.7,32.3,9.9,51.9
			c6.6-12.4,10.6-27.7,9.9-48.2c15.4,51.6-0.5,111.7-24.8,140.9c-4.8-13.7-3.9-33.9-9.9-46.4c-4.9,40.3-19.1,70-38,94.6
			c-19.8-15.5-28.6-43.3-38-70.5c0.4-9.1-2.9-14-1.7-24.1c-8,10.2-7.7,29.7-9.9,46.4c-27.3-27.8-39.4-85.9-28.1-140.9
			c2.3,17.2,5,34,9.9,48.2C437.3,663,437.9,642.7,443.2,627.7"/>
		<path fill-rule="evenodd" clip-rule="evenodd" fill="#F7B332" d="M388.7,134.4c23.9-9.9,52.7,4.4,74.3,9.3
			c-9.7,2.8-26.7-2.1-39.6-1.9c27.8,12.4,56.2,26.1,71.7,59.3c-15.7-15.6-31.4-30.4-56.8-33.4C425.4,152.6,408.5,141.9,388.7,134.4"
			/>
		<path fill-rule="evenodd" clip-rule="evenodd" fill="#F7B332" d="M575.3,143.7c-9.8-3-27.7,1-39.6,1.9c19.4-9.5,47.7-17.5,74.3-13
			c-18.4,10.2-36.9,20.4-51.2,35.2c-25.1,3.9-43.2,15.8-56.1,33.4C511.8,172.5,543.5,153.1,575.3,143.7"/>
		<path fill-rule="evenodd" clip-rule="evenodd" fill="#F7B332" d="M222,420c-3.1-74.4,22-130.2,52.8-172.5
			c31.4-43,74.4-75.9,127.1-92.7c7.3,1.1,10.5,6.7,16.5,9.3c-45.9,6.6-77.8,28.9-97.4,64.9c21-6.7,39.6-16.1,67.7-14.8
			c-46,17.6-86.6,41.2-110.6,83.4c25.5-15.9,54.2-28.2,84.2-39c4.1-0.2,2.8,2.3,0,1.9c-9.5,7.9-22.5,11.8-31.4,20.4
			c-13.7,6.3-22.5,18-34.7,26c-18.4,22.6-39.3,42.4-49.5,74.2C236.6,391.9,229.1,405.8,222,420"/>
		<path fill-rule="evenodd" clip-rule="evenodd" fill="#F7B332" d="M719,297.6c-6-19.2-27.5-37.1-44.6-50.1
			c-19-13.3-38.6-25.9-64.4-31.5c24.2-5.5,47.1,6.4,66,13c0.4-6.7-10.4-16.7-14.9-24.1c-7.2-6.1-12.8-14.1-21.5-18.5
			c-15.9-11.2-34.1-19.8-59.4-20.4c3.3-5.6,9.6-7.8,14.9-11.1c53.6,16.5,97.2,49,128.8,90.9c31.7,41.9,53.1,99.2,54.5,174.3
			c-9.8-11.9-15.3-28.6-26.4-38.9c-23.2-58-66.5-93.4-117.2-120.5c-3.1-1.3,1.8-2.9,1.7,0c7.5,0.3,12.9,2.8,18.2,5.6
			c8.1,2.6,16.3,5.2,23.1,9.3C692.9,281.1,706.3,289,719,297.6"/>
		<path fill-rule="evenodd" clip-rule="evenodd" fill="#F7B332" d="M271.5,180.8c4.5,11.6-1.5,35.1,5,44.5
			c-11.5,23.5-34,34.8-51.2,51.9C233.3,244.2,252.6,207.8,271.5,180.8"/>
		<path fill-rule="evenodd" clip-rule="evenodd" fill="#F7B332" d="M725.6,228.1c4.7-11.4,3-30,3.3-46.4
			c22.7,24.5,34.8,61,49.5,94.6c-8.4-1.7-18.5-17.5-31.4-20.4C740.6,245.8,733.3,236.8,725.6,228.1"/>
		<path fill-rule="evenodd" clip-rule="evenodd" fill="#F7B332" d="M513.7,494.9c-6.7-15,12.2-37.9,21.6-23.5
			c0.8-21-17.9-9.9-38.5-10.1c-17.2-8.2-42.8-0.4-29.8,15.4c0.4-5.1,0.9-8.5,4.3-10.2c8.8,4.6,23.1,18.3,13.7,31.6
			c4.3,4,6.2,4,11.1,5.5c1.9-8.9-4.7-25.1,3.4-27.1c2.2,3.7,5.6,16.3,3.2,27.1C507.5,502.2,516.6,499.2,513.7,494.9"/>
		<path fill-rule="evenodd" clip-rule="evenodd" fill="#F7B332" d="M349.1,206.8c-0.9,0-1.9,1.5,0,1.8
			c60.7-21.9,116.1,20.3,143.6,57.5c-10.5-46.3-40.4-70.8-89.1-74.2c16.1-13.3,49-3.3,66-3.7C432.3,164.6,372.7,178.1,349.1,206.8"
			/>
		<path fill-rule="evenodd" clip-rule="evenodd" fill="#F7B332" d="M648,208.6c1.8,0.1,4.2-0.9,1.7-1.8c-23-28.5-86-43.7-120.5-16.7
			c11.4-2.7,23.6-4.4,36.3-5.6c10.4,2.5,25.7-0.4,29.7,9.3c-30.3-0.1-82.5,23.5-87.5,72.3C535.6,228.6,588.4,188.3,648,208.6"/>
		<path fill-rule="evenodd" clip-rule="evenodd" fill="#F7B332" d="M735.5,403.3c-18.2-58.6-56.3-94.9-104-120.5
			c-4.2-5.8-8.6-11.3-13.2-16.7c6.8-3.2,17.3,5.2,23.1,9.3c8.4,3,15.6,7.2,21.5,13c14.9,8,24.7,21.7,38,31.5
			c27.5,34.6,49.6,75.3,54.5,135.4c0.9,26.4-2.1,48.4-5,70.4c-7.5-20.6-7.4-49.7-21.5-63c15,65.9-0.3,139.9-29.7,178
			c-3.3-19.8-1.9-44.9-8.3-61.2c-2.9-53-17.6-92.8-38-126.1c-0.4-7.5-3.1-12.6-5-18.5c-0.3-7.8,2.5,0,5,0c0.9,2.7,2.6,4.5,4.9,5.6
			c2.1,5.7,5.5,10,9.9,13c5,10.4,12.2,18.5,16.5,29.7c10.7,19.5,20.3,40.2,24.8,66.8c3.7-60.5-20.7-105.4-47.9-137.2
			c-2.9-9.7-6.8-18.3-11.5-26c14.1,0.2,28.2,16.5,39.6,26c12,10.6,21.4,24.2,31.4,37.1c-11.1-44.4-32.3-77.5-64.4-98.3
			c-4.1-10.9-11-18.6-16.5-27.8c18.2,1.2,35,20,51.2,29.7c13.5,14.5,27.4,28.6,39.6,44.5c0.3,1.5,1.7,1.9,1.7,3.7
			C733.5,401.8,733.8,403.3,735.5,403.3"/>
		<path fill-rule="evenodd" clip-rule="evenodd" fill="#F7B332" d="M591.8,429.3c13.2-1.9,17.5-13.3,26-20.4
			c-0.3-15.8-0.7-33.4,3.7-48.2c2.5,18.2,6.2,35.1,6.6,55.6c-12.8,7.8-21,10.4-29.7,22.9v11.1c5.2,4,5,14.2,11.6,16.7
			c7-4.5,3.8-10,9.9-15.4c1.4,5.8,4.1,10.2,8.3,13c3.5-11.5,3.7-26.8,3.3-42.6c2.8-0.3,6.5,10.5,6.6,1.9
			c-3.5-12.1-6.2-25.1-8.3-38.9c5.3-2.1,8.6,13.1,9.9,3.7c-5.2-19.5-18.4-39.8-23.1-53.8c6.6,0,9.9,3.7,16.5,3.7
			c-4.1-25.6-15.8-42.8-28.1-59.3c1.4-4,10.5,0.7,11.6-3.7c-20.2-17.5-48.2-26.2-85.9-24.1c-1.4,4.6,1.5,9.9,2,16.7
			c-11.8,18-15.1,37.4-23.1,59.3c-9.2-27.8,9.2-46,9.5-63c-7.5,7.6-11.8,18.9-21.5,24.1c-5.7-9-11.9-17.6-19.8-24.1
			c2.8,13.1,13.5,28.1,14.9,44.2c0.5,5.1,0.2,14-5.3,18.8c-2.5-23-10.3-45.3-21.5-61.2c1.3-7,1.7-8.9,2-14.8
			c-37.6-1.4-67.8,5.5-85.9,26c4.7,0.3,11.3-1.6,11.6,3.7c-13.7,14.3-23.2,33.3-28.1,57.5c7.2,0,10.5-4.3,18.2-3.7
			c-9.9,16.1-18.1,34.1-24.8,53.8c0.6,10.7,6.7-9.6,9.9-1.9c-2.5,13.3-5.4,26.1-8.3,39c1.1,6.3,5.5-8.2,6.6-1.9
			c-0.1,16.1-0.5,32.7,5,42.6c2-5.7,4.1-11.5,8.3-14.8c4.8,7,0.9,18.1,9.9,20.4c3.7-8.2,11.3-12.1,9.9-26
			c-6.9-15.7-18.9-20.2-29.7-31.5c1.6-19.2,2.4-39.3,8.3-53.8c0.6,18.6,2.9,34.4,1.6,50.9c8.6,7,13.2,15.8,26.4,17.7
			c2.7-14.9,13.3-30.7,21.5-33.4c-9,14-15,23.5-12.8,50.1c5.5,1.2,12-6.1,14.9-1.8c-5.7,1-10.1,3.5-13.2,7.4c4.5,5.5,12,7.5,16.5,13
			c-9.9,0.7-17.2-2.1-25.2-3.7c0.3,5.9-4.4,6.2-3.3,13c9.2,8.3,23.7,10.5,34.7,16.7c-13.6-2.1-27.9-3.3-38-9.3
			c-1.3,4.1-3.5,7.2-3.3,13c11.4,8.9,29.3,10.4,44.6,14.8c-17,0.6-33,0-44.6-5.6c-0.7,6.4,0.7,10.4,1.7,14.8
			c13.6,5.1,32.4,4.4,46.2,9.3c-15.7-0.1-28.5,3.8-42.9,0c14,42.9,62.7,15,87.5,1.9c1.4-9.2-1.8-10-1.5-21.1
			c-12.6-0.7-16.8-12.2-9.4-19c-16.2-9-41.8-14.5-41.7-34c4.3,1.9,11.9,9.2,16.3,11.1c7.5-15.2,10.9-16.3,10.5-16.3
			c15.7-1.8,24.5-2.3,34.1,1.8c20.7-5,22.8-5.5,36.9,0.3c2.4,3.5,5.1,12.7,9.2,14.2c1.7-2.6,5.8-6.2,11.8-10.3
			c-0.1,17.6-20.9,24.3-36.9,31.6c7.3,10,4.5,13.8,0.4,15.7c0.7,3.3-8,4.4-13.3,5.9c0.2,9.9-1.6,9.6,0,20
			c24.6,13.2,73.8,41.1,87.5-1.9c-13.9,2.7-30.4,2-42.9-1.9c16.8-0.9,32-3.6,46.2-7.4c0.4-3.5,4.2-12.3,0-14.8
			c-9.6,5.4-30.2,8.1-42.9,3.7c18.7,0,32.3-5.8,44.6-13c-1.2-4.2-1.5-9.5-3.3-13c-10.4,3.8-26.4,11.1-38,7.4
			c15.1-1.6,24.2-9.9,36.3-14.9c-0.4-5.7-3.6-8.3-5-13c-7.5,0.9-18.8,11.4-26.8,5.6c8.3-1.8,17.8-6.4,21.8-13
			c-6.4-1.7-13.6-4.1-16.9-7.4c8.3,0,10.7,3.9,14.9,1.9c2.6-27-5.9-37.4-12.8-53.8C580.2,402.8,588.6,413.1,591.8,429.3
			 M458.8,323.6c-10,8.6-6.7,26.5-9.4,39.8c-7.5-1.6-5.1-6-10.5-8.2c-19.6-4-36.5-8.8-33.5-19.4c-7.2,0.3-11.1-2.3-16.2-5.4
			c15.4-1.3,39-4.9,52.9,5.9c-3.2-9-31.9-14-45-13.8c6.9-5.4-10.6-12.4,0-22.4c3.7,7.5,2.6,16.5,16.8,20.9
			c5.2-3.4,7.2-10.5,12.6-13.8c3.3,4.6-3,12.1,2.6,16.1c7.7,0,10.4-5.6,15.2-8.9c3.7,4.2-5.1,12-2.1,16.3
			C449,329.8,452.4,325,458.8,323.6 M535.9,327.9c3.9-3.3,12.7,3.2,16.7,5.7c6.2-3.6-0.1-10.5-1.5-16.1c6.7,1.3,9.5,6.6,15.4,8.7
			c8.4-3.3,4.5-10,3.4-15.9c6.9,1.7,10.5,6.8,12.5,13.5c15.6-4.3,18.4-12.1,18.3-20.7c14.2,5.4-4.3,17.4,0.8,20.4
			c-16.7,4.4-38.4,2.4-47.4,13.9c2.3,1.3,10-4.8,16.8-6c16.1-3.2,22.9,2.5,38.5-0.1c-0.8,3.3-9.7,7.3-14.4,6.1
			c-1.9,9.2-13.2,15.8-35.7,19.3c-8.8,1.7-4.6,6.9-13.4,8.6C540.9,353.1,552.6,336.2,535.9,327.9 M537.3,352.5
			c-26.4-5.1-31.1-2.7-38,11.9c-4.9-17.4-27.7-15.2-38-9.4c5.1-13.1,27.2-21.3,38-10C510.1,333.1,530.2,343.3,537.3,352.5
			 M399.1,353.2c7.4-2.2,19.4,19.1,34.4,19.6c22.7-1,22.7,6.3,12.2,4.6c-5,0-26.6,0.3-31.6,0.3c-0.3-2.5,1.4-2.9-0.6-3.2
			C406.5,369.3,401.9,362.5,399.1,353.2 M603.4,353.2c-8,6.9-13.9,15.9-23,21.5c-5.9,0-20.8,1-26.7,1c-3.2-1.5-2.9-5.8,11.9-4.6
			c2-0.4,5.4-1.6,7.8-1.6C584.9,362.6,584.7,356.9,603.4,353.2 M481.9,388.5c1.6,4.7-19.4,13.1-26.8,18.5
			c-3.9,5.7-2.5,10.4-7.3,15.5c8,3,11.2-10.2,28.1-8c-16.9,12.2-35.3,18.9-27.3,39c-30.5-27.2,7.2-59,15.2-85.3c7.4,6.5,2,21-3,26
			C468.7,392.8,476.1,391.1,481.9,388.5 M520.3,390.3c1.7-2.9,14.7,1.4,17.6,3.7c2-3.4-5.5-15.7-2.5-26c11.5,24.1,37,55.4,17.7,85.3
			c-1.1-15.3-4.8-28-25.2-37.1c10.4-5.7,15.1,4,23,6.3C547.7,405.1,537,400.8,520.3,390.3 M429.1,333.6c8.4,6.7,6.7,11.1,1.3,16.6
			 M568.9,352.1c-7.7-4.3-7.3-11-0.5-16.4"/>
		<path fill-rule="evenodd" clip-rule="evenodd" fill="#F7B332" d="M651.3,687c-1.1-21.9,2-58.8-3.3-81.6
			c-5.9,23.1-10.4,47.7-18.2,68.6c-9.2,18.8-19.2,36.5-31.4,51.9c-1.2-9.6,3.2-20.2,3.3-31.5c0.3-29.6-9.2-63.3-18.2-83.4
			c5.8,1,11,10.3,14.9,18.5c4.1,8.8,7.3,19.6,8.2,29.7c5.7-34.8-4-68.4-9.9-96.4c13.6,12.5,18.9,34.4,26.4,53.8
			c4.4-31.6-3.2-65.7-9.9-90.9c14.6,4.7,22.5,32.8,28.1,53.8c5.5-32.7-3.9-64.8-11.6-89c19.9,19.6,27.1,53.6,34.7,87.2
			c4.8-22.1-0.3-49.1-1.7-70.5c-3.6-7.1-4.1-17.6-6.6-26c-2.6-4.9-1.2-6.5,1.6-1.9c2.2,11.8,6.8,20.8,9.9,31.5
			c3.1,15.7,6.3,31.3,8.3,48.2C678.1,613.3,672.1,658.4,651.3,687"/>
		<path fill-rule="evenodd" clip-rule="evenodd" fill="#F7B332" d="M332.6,577.6c5.3-4.5,4.3-16.2,6.6-24.1
			c2.4-7.8,5.6-14.7,6.6-24.1c6.7-13.5,12.5-27.9,21.5-38.9c1.9,6.5-5.4,18.6-6.6,27.8c-1.9,10.2-3,21.3-5,31.5v29.7
			c8.5-19.6,13-43.5,28.1-55.6c-2.6,24.3-11.9,57-9.9,92.7c9.5-17.1,14.2-39.7,26.4-53.8c-2.4,25.8-13,58.3-9.9,96.4
			c5.6-19,12-37.2,23.1-50.1c-7.9,27.1-23.3,78.2-11.6,116.8c-26.7-28.7-42.8-69.4-49.5-120.5c-7.4,20-5.5,56.6-3.3,81.6
			c-16.9-17.4-22-48.2-26.4-79.7c-2.2-50.7,4.2-91.7,18.2-124.2c1.1-3.5,2.6,2,0,1.9c0.6,9.3-3.9,13-3.3,22.3
			c-3.9,7.4-2.2,21.1-5,29.7V577.6z"/>
		<path fill-rule="evenodd" clip-rule="evenodd" fill="#F7B332" d="M472.9,546.1c2.7,2-4.5,8.4-4.9,13c5.6-4.8,12.5-8.3,16.5-14.8
			c3.9,0.5,1,8.1,0,9.3c6.1-1.8,8.2-8.1,13.2-11.1c7.5,0.9,9.8,7.6,14.9,11.1c3.7-0.3-2.1-4.7,0-9.3c5.3,5.1,12,8.8,16.5,14.8
			c2.5-1.2-2-10-4.9-11.1c4.7-0.9,14.7,8.2,19.8,13c2.1-0.5,0.9-7-0.7-7c13.4-1.4,30.2,9.8,33.8,25.6c-4,0.8-3.6-3.4-8.2-1.9
			c-3,2.3,3,10,1.6,16.7c-6.5,0.5-5-7.9-11.6-7.4c-0.8,3.3,1.2,19.5-3.3,24.1c-4.4-4.3-5.7-12.1-11.6-14.8
			c-4.9,9.3-6,22.9-16.5,25.9c-0.7-7.8-7.8-8.5-9.9-14.8c-9.1,4.6-10.8,17.6-19.8,22.2c-3.2-9.4-9.9-14.8-14.9-22.2
			c-4.3,4.4-10,7.4-11.6,14.8c-8.8-4.3-13.6-13.1-14.9-25.9c-6.8,1.6-9.2,8.2-11.5,14.8c-6-3.2-4.9-14.3-5-24.1
			c-5.3,0.9-5.8,7-11.6,7.4c-0.1-6.9,1.7-11.7,3.3-16.7c-5.1-1.3-6,1.9-9.9,1.9c1.7-5.8,19.7-25.3,33-27.8c-0.9,1.5-1.7,6.7-1.6,9.2
			C459.6,555.8,467.3,552.1,472.9,546.1"/>
		<path fill="#F7B332" d="M742.5,581.3c55.1,50.7,83.2,63.7,75.2,77.8c-4.8,8.5-74-56.7-84.4-65.8c0.8,12.6-8.2,26.6-8.2,26.6
			c96.7,79.1,163.4,102.9,164.7,100.4c1.2-2.5-5.3-49.3-146.7-170.5L742.5,581.3z"/>
		<path fill="#F7B332" d="M255.5,549.7C114.1,671,107.6,717.7,108.8,720.3c1.2,2.5,67.9-21.3,164.7-100.4c0,0-9-14-8.2-26.6
			c-10.4,9.1-79.5,74.3-84.4,65.8c-8-14.2,20.1-27.1,75.2-77.8L255.5,549.7z"/>
		<path fill="#F7B332" d="M759.2,199.4c15.1-11.7,35.1-27.9,35.1-27.9l-7.8-9.8c0,0-18.9,16.5-34,28.4l-18.2-26
			c25-20.1,53.9-37.2,53.9-37.2l40.5,51.2c0,0-28.5,28.7-53.9,48L759.2,199.4z"/>
		<path fill="#F7B332" d="M792.1,108.1l56,70.8l6.5-7.1l0.3-18.6l85.3-76.5c-3-1.2-5.9-2.9-8.6-4.9l-2.5,2.2l0.1-4
			c-2.3-1.9-4.5-4.2-6.5-6.7c-1.2-1.5-2.2-3-3.2-4.5l-0.8,24.5l-6,5.4l1.2-35.6l2.1-1.5c-1.2-3.2-2.1-6.5-2.5-9.7L818.7,109
			l-18.4-5.4L792.1,108.1z M838.5,106.5l-0.8,23.1l-5.6-7.1l0.4-11.7L838.5,106.5z M896.3,103.4l1.3-38.8l6-4.2L902.3,98
			L896.3,103.4z M879.9,118.1l1.4-41.9l6-4.3l-1.4,40.8L879.9,118.1z M863.5,132.8l1.5-45.1l6-4.2l-1.5,44L863.5,132.8z
			 M853.2,142.1l-3.3,2.9l-2.6-3.3l1.4-42.6l6-4.2L853.2,142.1z"/>
		<path fill="#F7B332" d="M924.3,12.6c-14.3,11.2-15.1,33.9-1.7,50.8c13.4,16.9,35.8,21.5,50,10.4c14.3-11.2,15-33.9,1.7-50.8
			C961,6,938.6,1.4,924.3,12.6 M928.5,17.8c11.8-9.2,30.4-5.4,41.5,8.6c11.1,14,10.4,32.9-1.4,42.1c-11.8,9.3-30.4,5.4-41.5-8.6
			C916,45.9,916.6,27,928.5,17.8"/>
		<path fill="#F7B332" d="M931.3,21.4c-10.2,7.9-10.7,24.1-1.2,36.1c9.5,12,25.4,15.3,35.6,7.4c10.2-7.9,10.7-24.1,1.2-36.1
			C957.4,16.8,941.5,13.5,931.3,21.4 M933.3,23.9c6.6-5.2,16-4.9,23.9-0.2c-6.9-2.7-14.3-2.2-19.8,2.1c-8.9,7-9.4,21.2-1.1,31.7
			c2.5,3.2,5.5,5.6,8.7,7.3c-4.7-1.6-9.3-4.7-12.8-9.1C923.9,45.2,924.3,30.9,933.3,23.9"/>
		<polygon fill="#F7B332" points="753.9,86.4 860.2,220.9 877.9,207.1 771.6,72.6 		"/>
		<path fill="#F7B332" d="M239,203C224,191.3,204,175.1,204,175.1l7.8-9.8c0,0,18.9,16.5,34,28.4l18.2-26
			c-25-20.1-53.9-37.2-53.9-37.2l-40.5,51.2c0,0,28.5,28.7,53.9,48L239,203z"/>
		<path fill="#F7B332" d="M197.9,107.1l-18.4,5.4L84.8,45.5c-0.4,3.2-1.2,6.5-2.5,9.7l2.1,1.5l1.2,35.6l-6-5.4l-0.8-24.5
			c-1,1.5-2,3-3.2,4.5c-2,2.5-4.2,4.8-6.5,6.7l0.1,4l-2.5-2.2c-2.7,2-5.6,3.6-8.6,4.9l85.3,76.5l0.3,18.6l6.5,7.1l56-70.8
			L197.9,107.1z M165.7,114.3l0.4,11.7l-5.6,7.1l-0.8-23.1L165.7,114.3z M95.9,101.6l-1.3-37.7l6,4.2l1.3,38.8L95.9,101.6z
			 M112.3,116.3l-1.4-40.8l6,4.2l1.4,42L112.3,116.3z M128.6,131l-1.5-44l6,4.2l1.5,45.1L128.6,131z M143.4,98.5l6,4.2l1.4,42.6
			l-2.6,3.2l-3.3-2.9L143.4,98.5z"/>
		<path fill="#F7B332" d="M23.8,26.5c-13.4,16.9-12.6,39.6,1.7,50.8c14.3,11.2,36.7,6.5,50-10.4C88.9,50,88.2,27.3,73.9,16.1
			C59.6,5,37.2,9.6,23.8,26.5 M71.2,63.5c-11.1,14-29.7,17.8-41.5,8.6c-11.8-9.2-12.5-28.1-1.4-42.1c11.1-14,29.7-17.8,41.5-8.6
			C81.6,30.6,82.2,49.5,71.2,63.5"/>
		<path fill="#F7B332" d="M31.3,32.3c-9.5,12-8.9,28.2,1.2,36.1c10.2,7.9,26.1,4.6,35.6-7.4c9.5-12,8.9-28.2-1.2-36.1
			C56.7,17,40.8,20.3,31.3,32.3 M66,59.4c-3.5,4.5-8,7.5-12.8,9.1c3.2-1.7,6.2-4.2,8.7-7.3c8.3-10.5,7.9-24.7-1.1-31.7
			c-5.5-4.3-12.9-4.8-19.8-2.1c7.8-4.8,17.3-5,23.9,0.2C73.9,34.5,74.3,48.8,66,59.4"/>
		<polygon fill="#F7B332" points="244.4,90 138,224.4 120.3,210.6 226.7,76.2 		"/>
	</g>
	<g>
	</g>
	<g>
	</g>
	<g>
	</g>
	<g>
	</g>
	<g>
	</g>
	<g>
	</g>
</g>
</svg>
