<?xml version="1.0" encoding="utf-8"?>
<!-- Generator: Adobe Illustrator 17.1.0, SVG Export Plug-In . SVG Version: 6.00 Build 0)  -->
<!DOCTYPE svg PUBLIC "-//W3C//DTD SVG 1.1//EN" "http://www.w3.org/Graphics/SVG/1.1/DTD/svg11.dtd">
<svg version="1.1" id="Layer_1" xmlns="http://www.w3.org/2000/svg" xmlns:xlink="http://www.w3.org/1999/xlink" x="0px" y="0px"
	 viewBox="0 0 393.9 184.5" enable-background="new 0 0 393.9 184.5" xml:space="preserve">
<g>
	<g>
		<path fill="#FFFFFF" d="M33.9,39.6l-2.8-3.1c0,0-3.8,6-10.6,6c-7.1,0-10.8-4.3-10.8-16.7C9.7,13.4,13.1,9.2,20,9.2
			c4.7,0,10.8,3.1,10.8,3.1l0.9-4.7c0,0-6.2-3.3-12.8-3.3C7,4.4,0,13,0,26.1C0,39,6.5,47.3,19.3,47.3C30,47.3,33.9,39.6,33.9,39.6z
			 M46.9,19.3h9.5v27.3h8.5v-32H38.4v32h8.5V19.3z M94.1,38.8c0,0-2.5,4.2-7.4,4.2c-4.9,0-6.8-2.8-7-10.6h17.2c0,0,0.5-1.5,0.5-4
			c0-9.3-4.6-14.5-12.5-14.5c-8.5,0-14.2,5.9-14.2,17.2c0,11.5,6,16.1,15,16.1C93.9,47.3,97,41,97,41L94.1,38.8z M84.9,18
			c3.4,0,4.6,2.2,4.6,8.8v1.5h-9.8C80,20.2,81.5,18,84.9,18z M128.3,56.1h4.5l1-14.1h-4.2V14.6H121v27.3h-9.5V14.6H103v32h24.2
			L128.3,56.1z M147.1,19.3h9.5v27.3h8.5v-32h-26.5v32h8.5V19.3z M177.1,9.8c1.2,0,2.4-0.4,3.3-1.2c1-1,1.4-2.4,1.4-3.7
			c0-1.3-0.4-2.6-1.4-3.6c-0.9-0.8-2-1.2-3.3-1.2c-1.2,0-2.4,0.4-3.4,1.3c-1,1-1.5,2.2-1.5,3.6c0,1.3,0.5,2.7,1.5,3.6
			C174.7,9.3,175.9,9.8,177.1,9.8z M181.4,14.6h-8.5v32h8.5V14.6z M190.4,56.1l1.9-9.5H212l1.5,9.5h4l1-14h-4.5V14.6h-20.8
			c0,11.8-0.4,20.1-3.3,27.5h-4.2l0.6,14H190.4z M197.9,19.1h7.6V42h-10.2C197.5,35.2,197.8,27.6,197.9,19.1z M231.5,44.9h0.2
			c0,0,2.1,2.4,7.7,2.4c7.9,0,12.7-6.9,12.7-17.3c0-9.7-4.6-16.1-12.2-16.1c-6,0-8.7,3.6-8.7,3.6H231l-1.2-2.9H223v48.3l8.5-0.3
			V44.9z M231.5,21.6c0.1-0.3,2-2.8,5.4-2.8c4,0,6.1,2.2,6.1,11.3c0,9.3-2,12.3-6.7,12.3c-3.3,0-4.7-2.1-4.7-2.1V21.6z M270.8,13.9
			c-9.6,0-14.9,6.1-14.9,16.7c0,10.6,5.3,16.7,14.9,16.7c9.2,0,15-6.1,15-16.7C285.8,20,280.5,13.9,270.8,13.9z M270.8,43.1
			c-4.2,0-5.8-3.3-5.8-12.5c0-9.2,1.5-12.4,5.8-12.4c4.2,0,5.8,3.2,5.8,12.4C276.6,39.8,275.1,43.1,270.8,43.1z M298.6,43.1
			c-5.7,0-8.1-3.9-8.1-3.9l-2.4,3.1c0,0,2,5.1,11.6,5.1c8.6,0,13.9-3.3,13.9-9.9c0-4.6-3-6.7-6.3-7.6c2.7-1.2,5.2-3.3,5.2-7.2
			c0-5.2-3.7-8.6-12.5-8.6c-4.5,0-9.6,2.5-9.6,2.5l0.8,4.2c0,0,4.3-2.4,7.6-2.4c3.6,0,5.3,1.4,5.3,5.1c0,3.9-2.2,5-3.4,5.2h-0.4
			l-5.8-0.3v4.4l5.4-0.3c2.7,0,4.9,1.2,4.9,4.8C304.9,41,302.5,43.1,298.6,43.1z M348.9,42h-4.5V14.6h-20.8
			c0,11.8-0.4,20.1-3.3,27.5h-4.2l0.6,14h4.1l1.9-9.5h19.7l1.5,9.5h4L348.9,42z M335.9,42h-10.2c2.2-6.8,2.6-14.4,2.6-22.9h7.6V42z
			 M353.5,46.6h8.5v-32h-8.5V46.6z M357.8,9.8c1.2,0,2.4-0.4,3.3-1.2c1-1,1.4-2.4,1.4-3.7c0-1.3-0.4-2.6-1.4-3.6
			c-0.9-0.8-2-1.2-3.3-1.2c-1.2,0-2.4,0.4-3.4,1.3c-1,1-1.5,2.2-1.5,3.6c0,1.3,0.5,2.7,1.5,3.6C355.3,9.3,356.5,9.8,357.8,9.8z
			 M374.8,14.6c0,16.6-1.8,27.5-7.4,27.5c-0.3,0-0.5,0-0.8-0.1l-0.3,5.1c0.6,0.1,1.2,0.2,1.7,0.2c7.9,0,11.2-12.1,11.6-28h5.8v27.3
			h8.5v-32H374.8z M134.5,91.3c0-1.2-0.4-2.4-1.3-3.3c-0.8-0.7-2-1.1-3.1-1.1h-0.4c0.1-3.3,2.1-7.1,5.1-9.7l-2.2-2.4
			c-4,3.3-7.2,9.6-7.2,14.6c0,1.7,0.4,3.2,1.2,4.4c0.2,0.3,0.4,0.5,0.6,0.7c0.8,0.8,1.9,1.2,3,1.2c1.1,0,2.2-0.4,3.1-1.2
			C134,93.7,134.5,92.5,134.5,91.3z M145.2,88c-0.8-0.7-2-1.1-3.1-1.1h-0.4c0.1-3.3,2.1-7.1,5.1-9.7l-2.2-2.4
			c-4,3.3-7.2,9.6-7.2,14.6c0,1.7,0.4,3.2,1.2,4.4c0.2,0.3,0.4,0.5,0.6,0.7c0.8,0.8,1.9,1.2,3,1.2c1.1,0,2.2-0.4,3.1-1.2
			c0.8-0.9,1.3-2,1.3-3.3C146.5,90.1,146,89,145.2,88z M180.5,123.4V81.8h-22.7c0,26.2-2.9,36.4-8.8,36.4c-1,0-1.9-0.3-1.9-0.3
			l-0.3,5.6c0,0,1,0.5,3.5,0.5c7.8,0,12.5-12,12.6-37.6h8.8v37H180.5z M214,105.2c0-9.3-4.6-14.5-12.5-14.5
			c-8.5,0-14.2,5.9-14.2,17.2c0,11.5,6,16.1,15,16.1c8.3,0,11.3-6.3,11.3-6.3l-2.9-2.2c0,0-2.5,4.2-7.4,4.2c-4.9,0-6.8-2.8-7-10.6
			h17.2C213.5,109.2,214,107.8,214,105.2z M206.1,105.1h-9.8c0.3-8.1,1.8-10.2,5.2-10.2s4.6,2.2,4.6,8.8V105.1z M239.1,107
			c2.9-1.2,5.6-3.2,5.6-7c0-4.8-3.4-8.6-12.9-8.6h-12.2v32H232c10.5,0,13.9-3.7,13.9-9.3C245.9,110,242.3,107.9,239.1,107z
			 M228.1,95.2h3.6c3.3,0,4.5,2,4.5,5.2c0,4.9-3.5,5.2-3.5,5.2h-4.7V95.2z M231.8,119.6h-3.6v-10.9h4.1c3.5,0,4.9,1.9,4.9,5
			C237.1,117.1,235.7,119.6,231.8,119.6z M256.2,76.1c-0.9-0.8-2-1.2-3.1-1.2c-1.1,0-2.2,0.4-3.1,1.2c-0.9,0.9-1.3,2.1-1.3,3.3
			c0,1.2,0.4,2.4,1.3,3.3c0.8,0.8,2,1.2,3.1,1.2h0.4c-0.1,3.3-2.2,7-5.1,9.6l2.2,2.4c4-3.3,7.2-9.6,7.2-14.6c0-1.9-0.4-3.6-1.5-4.9
			L256.2,76.1z M260.5,93.4l2.2,2.4c4-3.3,7.2-9.6,7.2-14.6c0-1.9-0.4-3.6-1.5-4.9l-0.2-0.3c-0.9-0.8-2-1.2-3.1-1.2
			c-1.1,0-2.2,0.4-3.1,1.2c-0.9,0.9-1.3,2.1-1.3,3.3c0,1.2,0.4,2.4,1.3,3.3c0.8,0.8,2,1.2,3.1,1.2h0.4
			C265.4,87.1,263.4,90.9,260.5,93.4z M19.5,157.2l-9.3,19.5h1.6l2.9-6h7.6l1.2,6h2.4l-3.7-19.5H19.5z M15.2,169.5l4.9-10.5
			l1.9,10.5H15.2z M33.8,169.5c2.3-0.4,5.5-0.8,5.5-4.3c0-2.2-1.9-3.7-4.9-3.7c-3.1,0-4.6,1.6-4.6,1.6l0.3,1.2c0,0,1.4-1.5,3.8-1.5
			c2,0,3.2,1,3.2,2.4c0,2.6-2,3.1-3.6,3.3c-2.4,0.4-5.2,0.9-5.2,4.6c0,2.3,1.9,3.9,4.9,3.9c3.6,0,5.1-2.5,5.1-2.5l-0.8-0.7
			c0,0-1.2,1.9-3.9,1.9c-1.8,0-3.1-1.1-3.1-2.5C30.5,170.3,32.2,169.8,33.8,169.5z M48.3,161.4c-4.5,0-7.5,3.8-7.5,9.5
			c0,4,2.5,6.1,5.9,6.1c3.6,0,5.1-2.4,5.1-2.4l-0.8-0.7c0,0-1.3,1.8-3.9,1.8c-2.3,0-4-1.3-4-4.5c0-0.4,0-0.9,0-1.3h1.3
			c3.3,0,8.4-0.3,8.4-4.6C52.8,163.2,51.2,161.4,48.3,161.4z M44.5,168.8h-1.3c0.5-3.8,2.2-6.1,4.8-6.1c1.9,0,2.8,1.1,2.8,2.5
			C50.8,168.5,47.2,168.8,44.5,168.8z M64.6,168.3H58l0.9-6.6h-2.2l-2.1,15h2.2l1-7h6.7l-1,7h2.2l2.1-15h-2.2L64.6,168.3z
			 M69.9,170.9c0,4,2.3,6.1,5.8,6.1c3.6,0,4.9-2.4,4.9-2.4l-0.9-0.6c0,0-1.1,1.7-3.7,1.7c-2.2,0-3.9-1.3-3.9-4.5
			c0-5.2,1.6-8.4,5.6-8.4c2,0,3.5,1.3,3.5,1.3l0.4-1.2c0,0-1.7-1.4-4.1-1.4C72.4,161.4,69.9,165.2,69.9,170.9z M82.9,163.1h4.6
			l-1.9,13.6h2.2l1.9-13.6h4.5l0.2-1.4H83.2L82.9,163.1z M106.7,164.8c0-2.1-1.9-3.4-5.5-3.4c-1.7,0-4,0.3-4,0.3l-2.1,15
			c0,0,1.8,0.3,4.5,0.3c5,0,6.8-2.2,6.8-5.1c0-1.7-1.3-2.6-2.8-3C104.9,168.5,106.7,167.3,106.7,164.8z M104.1,171.8
			c0,2.2-1.2,4-4.5,4c-0.8,0-1.5,0-2.2-0.1l0.9-6.2h3.1C103.3,169.5,104.1,170.4,104.1,171.8z M101.6,168.6h-3.2l0.8-5.8
			c0.6-0.1,1.3-0.1,1.8-0.1c2.2,0,3.6,0.9,3.6,2.4C104.5,168.3,101.6,168.6,101.6,168.6z M116.5,161.4c-5,0-7.6,3.8-7.6,9.4
			c0,3.9,1.9,6.2,5.4,6.2c4.8,0,7.6-3.8,7.6-9.4C121.9,163.7,120,161.4,116.5,161.4z M114.5,175.7c-2.4,0-3.4-1.7-3.4-4.4
			c0-5.4,1.8-8.5,5.2-8.5c2.3,0,3.4,1.7,3.4,4.5C119.6,172.6,117.8,175.7,114.5,175.7z M131,176.7h2.2l1.9-13.6h6.5l-1.9,13.6h2.2
			l2.1-15h-10.8L131,176.7z M154.7,161.4c-2.9,0-4.3,1.8-4.5,2.1l0-1.8h-1.8l-3.1,22.6l2.2-0.1l1.2-8.6h0c0,0,0.9,1.4,3.7,1.4
			c4.7,0,7.4-4.3,7.4-9.6C159.7,163.6,157.7,161.4,154.7,161.4z M151.8,175.6c-2,0-2.8-1.1-3-1.3l1.3-9.4c0.2-0.3,1.4-2,3.7-2
			c2.2,0,3.6,1.3,3.6,4.4C157.4,172.5,155.5,175.6,151.8,175.6z M169.2,161.4c-5,0-7.6,3.8-7.6,9.4c0,3.9,1.9,6.2,5.4,6.2
			c4.8,0,7.6-3.8,7.6-9.4C174.6,163.7,172.7,161.4,169.2,161.4z M167.2,175.7c-2.4,0-3.4-1.7-3.4-4.4c0-5.4,1.8-8.5,5.2-8.5
			c2.3,0,3.4,1.7,3.4,4.5C172.4,172.6,170.6,175.7,167.2,175.7z M187.4,161.4h-0.2l0.1-0.9c0.5-3.7,1.5-5.2,3.1-5.2
			c0.9,0,1.4,0.5,1.4,0.5l0.5-1.2c0,0-0.5-0.7-2.1-0.7c-2.5,0-4.5,1.7-5.1,6.6l-0.2,0.9l-0.1,0c-5.2,0-8.3,3.5-8.3,9.2
			c0,4,2.2,6.4,6.1,6.4h0.1l-0.1,0.9c-0.5,3.7-1.5,5.2-3.1,5.2c-0.9,0-1.4-0.4-1.4-0.4l-0.5,1.1c0,0,0.5,0.7,2.1,0.7
			c2.5,0,4.5-1.7,5.1-6.6l0.1-1l0.2,0c5.2,0,8.4-3.5,8.4-9.2C193.6,163.8,191.3,161.4,187.4,161.4z M183.1,175.7
			c-2.8,0-4.3-1.6-4.3-4.9c0-5,1.9-7.9,6.1-8L183.1,175.7z M185.2,175.7l1.9-13c2.8,0,4.3,1.6,4.3,4.9
			C191.3,173,189.1,175.7,185.2,175.7z M202.9,161.4c-4.5,0-7.5,3.8-7.5,9.5c0,4,2.5,6.1,5.9,6.1c3.6,0,5.1-2.4,5.1-2.4l-0.8-0.7
			c0,0-1.3,1.8-3.9,1.8c-2.3,0-4-1.3-4-4.5c0-0.4,0-0.9,0-1.3h1.3c3.3,0,8.4-0.3,8.4-4.6C207.5,163.2,205.9,161.4,202.9,161.4z
			 M199.1,168.8h-1.3c0.5-3.8,2.2-6.1,4.8-6.1c1.9,0,2.8,1.1,2.8,2.5C205.5,168.5,201.9,168.8,199.1,168.8z M209.1,170.9
			c0,4,2.3,6.1,5.8,6.1c3.6,0,4.9-2.4,4.9-2.4L219,174c0,0-1.1,1.7-3.7,1.7c-2.2,0-3.9-1.3-3.9-4.5c0-5.2,1.6-8.4,5.6-8.4
			c2,0,3.5,1.3,3.5,1.3l0.4-1.2c0,0-1.7-1.4-4.1-1.4C211.6,161.4,209.1,165.2,209.1,170.9z M222,176.7h2.2l2.1-15h-2.2L222,176.7z
			 M226,156.1c-0.3,0-0.7,0.1-0.9,0.3c-0.4,0.3-0.5,0.7-0.5,1.1c0,0.3,0.1,0.6,0.3,0.8c0.2,0.2,0.5,0.3,0.8,0.3c0.3,0,0.7-0.1,1-0.3
			c0.3-0.3,0.5-0.7,0.5-1.2c0-0.3-0.1-0.6-0.2-0.8C226.6,156.2,226.3,156.1,226,156.1z M231.2,173.7l1.7-11.9h-2.2l-2.1,15h1.7
			l9.3-12.4l-1.7,12.4h2.2l2.1-15h-1.9L231.2,173.7z M234.9,156.3l-1.8,0.2c0,0-0.2,3,3.8,3c3.9,0,4.7-3,4.7-3l-1.8-0.2l0,0.1
			c0,0-0.3,1.8-2.7,1.8c-2.4,0-2.2-1.8-2.2-1.8L234.9,156.3z M254.5,168.3h-6.7l0.9-6.6h-2.2l-2.1,15h2.2l1-7h6.7l-1,7h2.2l2.1-15
			h-2.2L254.5,168.3z M267.4,161.4c-5,0-7.6,3.8-7.6,9.4c0,3.9,1.9,6.2,5.4,6.2c4.8,0,7.6-3.8,7.6-9.4
			C272.8,163.7,270.9,161.4,267.4,161.4z M265.4,175.7c-2.4,0-3.4-1.7-3.4-4.4c0-5.4,1.8-8.5,5.2-8.5c2.3,0,3.4,1.7,3.4,4.5
			C270.6,172.6,268.8,175.7,265.4,175.7z M275,176.7h2.2l2.1-15h-2.2L275,176.7z M281.2,156.2c-0.3,0-0.6,0.1-0.8,0.3
			c-0.3,0.3-0.5,0.7-0.5,1.1c0,0.3,0.1,0.5,0.2,0.7c0.2,0.2,0.5,0.3,0.7,0.3c0.3,0,0.6-0.1,0.8-0.3c0.3-0.3,0.5-0.7,0.5-1.1
			c0-0.3-0.1-0.5-0.2-0.7C281.8,156.3,281.5,156.2,281.2,156.2z M277.1,158.3c0.3-0.3,0.5-0.7,0.5-1.1c0-0.2-0.1-0.5-0.2-0.7
			c-0.2-0.2-0.4-0.3-0.7-0.3c-0.3,0-0.6,0.1-0.8,0.3c-0.3,0.3-0.5,0.7-0.5,1.1c0,0.3,0.1,0.5,0.2,0.7c0.2,0.2,0.5,0.3,0.7,0.3
			C276.6,158.6,276.9,158.5,277.1,158.3z M288.6,170.4c0,3.4,1.7,6.6,5.4,6.6c4.8,0,7.6-4.1,7.6-9.8c0-3.8-1.8-5.8-5.1-5.8
			c-3.6,0-5.7,3.5-6.1,5.7h-0.1c0.5-5.7,3-10,8.1-10.5l3.5-0.4l0.2-2.2l-4,0.5C291.5,155.3,288.6,162.2,288.6,170.4z M296,162.7
			c2.3,0,3.4,1.5,3.4,4.4c0,5.5-1.9,8.6-5.2,8.6c-2.2,0-3.4-2.2-3.4-4.7C290.8,166.1,293.2,162.7,296,162.7z M311,161.4
			c-4.5,0-7.5,3.8-7.5,9.5c0,4,2.5,6.1,5.9,6.1c3.6,0,5.1-2.4,5.1-2.4l-0.8-0.7c0,0-1.3,1.8-3.9,1.8c-2.3,0-4-1.3-4-4.5
			c0-0.4,0-0.9,0-1.3h1.3c3.3,0,8.4-0.3,8.4-4.6C315.5,163.2,313.9,161.4,311,161.4z M307.2,168.8h-1.3c0.5-3.8,2.2-6.1,4.8-6.1
			c1.9,0,2.8,1.1,2.8,2.5C313.6,168.5,309.9,168.8,307.2,168.8z M327.6,164.8c0-2-1.8-3.4-5.1-3.4c-2.5,0-4.8,1.4-4.8,1.4l0.2,1.3
			c0,0,2-1.4,4.1-1.4c2,0,3.3,0.9,3.3,2.3c0,2.6-2.2,3.2-2.7,3.3h-0.1l-2.7-0.1l-0.2,1.3l2.6-0.1c1.5,0,2.6,0.9,2.6,2.3
			c0,2-1.4,3.8-4.1,3.8c-3.3,0-4.1-2.1-4.1-2.1l-0.8,1c0,0,0.9,2.5,5.2,2.5c3.9,0,6.2-2.2,6.2-5.1c0-1.7-1.2-2.7-2.6-3.1
			C326,168.3,327.6,167.2,327.6,164.8z M329.8,176.7h2.2l1.9-13.6h6.5l-1.9,13.6h2.2l2.1-15h-10.8L329.8,176.7z M352.4,161.4
			c-4.5,0-7.5,3.8-7.5,9.5c0,4,2.5,6.1,5.9,6.1c3.6,0,5.1-2.4,5.1-2.4l-0.8-0.7c0,0-1.3,1.8-3.9,1.8c-2.3,0-4-1.3-4-4.5
			c0-0.4,0-0.9,0-1.3h1.3c3.3,0,8.4-0.3,8.4-4.6C356.9,163.2,355.3,161.4,352.4,161.4z M348.6,168.8h-1.3c0.5-3.8,2.2-6.1,4.8-6.1
			c1.9,0,2.8,1.1,2.8,2.5C355,168.5,351.3,168.8,348.6,168.8z M369.4,161.7l-5.1,5.8l-2.2,1l1-6.9h-2.2l-2.1,15h2.2l0.9-6.7l1.9-0.8
			l3.2,7.6h2.5l-3.9-8.8l5.3-6.2H369.4z M375,173.7l1.7-11.9h-2.2l-2.1,15h1.7l9.3-12.4l-1.7,12.4h2.2l2.1-15H384L375,173.7z"/>
	</g>
</g>
<path fill-rule="evenodd" clip-rule="evenodd" fill="#FFFFFF" d="M8.8,148.5v-1.6h373.3v1.6H8.8z"/>
</svg>
